<svg width="133" height="32" viewBox="0 0 133 32" fill="none" xmlns="http://www.w3.org/2000/svg">
<g clip-path="url(#clip0_14237_1948)">
<path d="M40.4766 21.9635H49.805V19.1537H43.7921V8.57031H40.4766V21.9635Z" fill="#C1C1C1"/>
<path d="M55.3325 20.0891C54.0026 20.0891 53.3095 18.9277 53.3095 17.1857C53.3095 15.4436 54.0026 14.2635 55.3325 14.2635C56.6625 14.2635 57.3743 15.4436 57.3743 17.1857C57.3743 18.9277 56.6625 20.0891 55.3325 20.0891ZM55.3512 22.262C58.442 22.262 60.465 20.0704 60.465 17.1857C60.465 14.301 58.442 12.1094 55.3512 12.1094C52.2792 12.1094 50.2188 14.301 50.2188 17.1857C50.2188 20.0704 52.2792 22.262 55.3512 22.262Z" fill="#C1C1C1"/>
<path d="M65.8148 25.277C67.2384 25.277 68.4934 24.9585 69.3363 24.2093C70.1043 23.5162 70.6101 22.4672 70.6101 21.0249V12.3708H67.6879V13.4011H67.6505C67.0885 12.5956 66.2269 12.0898 64.9531 12.0898C62.5742 12.0898 60.9258 14.0754 60.9258 16.8852C60.9258 19.826 62.9301 21.437 65.0842 21.437C66.2456 21.437 66.9761 20.9687 67.5381 20.3318H67.613V21.2871C67.613 22.4485 67.0698 23.1228 65.7773 23.1228C64.7658 23.1228 64.26 22.692 64.0914 22.1862H61.1318C61.4315 24.1905 63.1736 25.277 65.8148 25.277ZM65.796 19.1704C64.6534 19.1704 63.9041 18.2338 63.9041 16.7915C63.9041 15.3304 64.6534 14.3938 65.796 14.3938C67.0698 14.3938 67.7441 15.4803 67.7441 16.7728C67.7441 18.1215 67.126 19.1704 65.796 19.1704Z" fill="#C1C1C1"/>
<path d="M76.6177 20.0891C75.2877 20.0891 74.5946 18.9277 74.5946 17.1857C74.5946 15.4436 75.2877 14.2635 76.6177 14.2635C77.9476 14.2635 78.6594 15.4436 78.6594 17.1857C78.6594 18.9277 77.9476 20.0891 76.6177 20.0891ZM76.6364 22.262C79.7271 22.262 81.7501 20.0704 81.7501 17.1857C81.7501 14.301 79.7271 12.1094 76.6364 12.1094C73.5644 12.1094 71.5039 14.301 71.5039 17.1857C71.5039 20.0704 73.5644 22.262 76.6364 22.262Z" fill="#C1C1C1"/>
<path d="M82.6406 21.9635H85.6939V12.3728H82.6406V21.9635ZM82.6406 11.0429H85.6939V8.57031H82.6406V11.0429Z" fill="#C1C1C1"/>
<path d="M87.0195 25.1271H90.0728V20.9687H90.1103C90.7097 21.7741 91.5901 22.2612 92.8264 22.2612C95.3364 22.2612 97.0035 20.2756 97.0035 17.1661C97.0035 14.2815 95.4488 12.0898 92.9013 12.0898C91.5901 12.0898 90.6535 12.6705 89.9979 13.5322H89.9417V12.3708H87.0195V25.1271ZM92.0396 19.901C90.7284 19.901 89.9791 18.8333 89.9791 17.2785C89.9791 15.7238 90.6535 14.5437 91.9834 14.5437C93.2946 14.5437 93.9128 15.6301 93.9128 17.2785C93.9128 18.9082 93.201 19.901 92.0396 19.901Z" fill="#C1C1C1"/>
<path d="M101.975 22.2612C104.485 22.2612 106.339 21.1747 106.339 19.0768C106.339 16.6229 104.354 16.1921 102.668 15.9111C101.45 15.6863 100.364 15.5927 100.364 14.9183C100.364 14.3189 100.944 14.0379 101.694 14.0379C102.537 14.0379 103.117 14.3002 103.23 15.1618H106.04C105.89 13.2699 104.429 12.0898 101.712 12.0898C99.446 12.0898 97.5728 13.1388 97.5728 15.1618C97.5728 17.4096 99.3523 17.8592 101.019 18.1402C102.293 18.365 103.455 18.4586 103.455 19.3203C103.455 19.9384 102.874 20.2756 101.956 20.2756C100.944 20.2756 100.308 19.8073 100.195 18.852H97.3105C97.4042 20.9687 99.165 22.2612 101.975 22.2612Z" fill="#C1C1C1"/>
<path d="M110.489 22.2427C111.819 22.2427 112.662 21.7182 113.355 20.7816H113.411V21.9617H116.333V12.3711H113.28V17.7284C113.28 18.871 112.643 19.6577 111.594 19.6577C110.62 19.6577 110.152 19.077 110.152 18.0281V12.3711H107.117V18.6649C107.117 20.8004 108.279 22.2427 110.489 22.2427Z" fill="#C1C1C1"/>
<path d="M117.66 21.9615H120.713V16.5855C120.713 15.4428 121.275 14.6374 122.231 14.6374C123.149 14.6374 123.579 15.2368 123.579 16.267V21.9615H126.633V16.5855C126.633 15.4428 127.176 14.6374 128.15 14.6374C129.068 14.6374 129.499 15.2368 129.499 16.267V21.9615H132.552V15.7238C132.552 13.5696 131.465 12.0898 129.293 12.0898C128.056 12.0898 127.026 12.6143 126.277 13.7757H126.239C125.752 12.7455 124.797 12.0898 123.542 12.0898C122.156 12.0898 121.238 12.7455 120.638 13.7382H120.582V12.3708H117.66V21.9615Z" fill="#C1C1C1"/>
<path fill-rule="evenodd" clip-rule="evenodd" d="M16.1449 31.325C24.766 31.325 31.7547 24.3362 31.7547 15.7152C31.7547 7.0942 24.766 0.105469 16.1449 0.105469C7.52387 0.105469 0.535156 7.0942 0.535156 15.7152C0.535156 24.3362 7.52387 31.325 16.1449 31.325ZM21.0146 7.37715C21.2517 6.53517 20.4346 6.03728 19.6883 6.56892L9.27125 13.99C8.46196 14.5666 8.58926 15.7152 9.46247 15.7152H12.2056V15.694H17.5518L13.1956 17.231L11.2752 24.0533C11.0382 24.8953 11.8552 25.3932 12.6015 24.8615L23.0186 17.4405C23.8279 16.8639 23.7005 15.7152 22.8274 15.7152H18.6675L21.0146 7.37715Z" fill="#C1C1C1"/>
</g>
<defs>
<clipPath id="clip0_14237_1948">
<rect width="132.683" height="32" fill="white"/>
</clipPath>
</defs>
</svg>
