<svg width="115" height="20" viewBox="0 0 115 20" fill="none" xmlns="http://www.w3.org/2000/svg">
<g clip-path="url(#clip0_15596_1520)">
<path d="M44.2453 6.21484C44.2453 9.93167 44.2453 11.3989 39.2988 11.3989C44.2453 11.3989 44.2453 12.8662 44.2453 16.583C44.2453 12.8883 44.2453 11.3989 49.1143 11.3989C44.2453 11.3989 44.2453 9.90962 44.2453 6.21484Z" fill="white"/>
<path fill-rule="evenodd" clip-rule="evenodd" d="M19.8564 19.6927C18.1457 19.6927 16.6417 19.3517 15.3445 18.6696C14.0614 17.9733 13.0564 17.007 12.3294 15.7707C12.2123 15.5652 12.1048 15.3542 12.007 15.1376L11.4325 19.3943H0.0351562V19.1812H0.0565594C0.56974 19.1812 0.983158 19.0461 1.29677 18.7762C1.61038 18.5062 1.76719 18.1154 1.76719 17.6038V5.32616C1.76719 4.81465 1.61038 4.40251 1.29677 4.08989C0.983158 3.77728 0.56974 3.62097 0.0565594 3.62097H0.0351562V3.4078H6.85647V3.62097H6.77093C6.25769 3.62097 5.84428 3.77728 5.53069 4.08989C5.21706 4.40251 5.06027 4.81465 5.06027 5.32616V17.6891C5.06027 18.1438 5.1672 18.4991 5.381 18.7548C5.60909 18.9964 6.00112 19.1172 6.55708 19.1172H7.00612C8.27489 19.1172 9.34404 18.7265 10.2136 17.9448C11.0618 17.1826 11.6048 16.1162 11.8427 14.7456C11.4544 13.743 11.2603 12.6281 11.2603 11.4011C11.2603 9.73845 11.6166 8.28904 12.3294 7.0527C13.0564 5.80221 14.0614 4.8359 15.3445 4.1538C16.6417 3.45752 18.1457 3.10938 19.8564 3.10938C21.5259 3.10938 22.9916 3.44098 24.2538 4.10408C25.6001 3.44098 27.1636 3.10938 28.9444 3.10938C29.5003 3.10938 29.9564 3.13071 30.3129 3.17329C30.6835 3.20177 31.0114 3.2373 31.2965 3.27988C31.5816 3.32255 31.8953 3.36513 32.2374 3.4078C32.5938 3.43618 33.0357 3.45038 33.5631 3.45038L34.2046 7.71353H33.9908C33.7342 6.36353 33.1569 5.30484 32.2588 4.53748C31.3749 3.77014 30.2701 3.38646 28.9444 3.38646C28.1318 3.38646 27.3905 3.5783 26.7204 3.96197C26.2791 4.21474 25.881 4.53223 25.5263 4.91455C25.3611 5.09236 25.2054 5.28431 25.0591 5.49026C25.0426 5.51348 25.0262 5.53689 25.0099 5.56055C24.8724 5.76406 24.7434 5.97977 24.6229 6.20767C24.4643 6.50753 24.3205 6.82884 24.1916 7.17075C24.1382 7.31187 24.0874 7.4567 24.0391 7.60514C23.9894 7.75821 23.9422 7.91514 23.8979 8.07587C23.6412 9.05636 23.513 10.1435 23.513 11.3371C23.513 12.4374 23.6135 13.4492 23.8146 14.3726L23.4748 15.3787C23.2969 15.9052 23.084 16.3659 22.8395 16.7649C22.6889 17.0017 22.5296 17.2143 22.362 17.404L22.346 17.4222C21.8167 16.9416 21.3646 16.3911 20.9897 15.7707C20.2342 14.5202 19.8564 13.0494 19.8564 11.3584C19.8564 9.71001 20.2342 8.26772 20.9897 7.03143C21.5056 6.18723 22.1611 5.47236 22.9561 4.8866C22.6347 4.51478 22.2787 4.2066 21.8878 3.96197C21.2748 3.5783 20.5977 3.38646 19.8564 3.38646C19.1151 3.38646 18.438 3.5783 17.8249 3.96197C17.212 4.34564 16.6917 4.88562 16.264 5.58201C15.8221 6.27831 15.4799 7.12372 15.2376 8.11845C15.0095 9.09894 14.8954 10.1861 14.8954 11.3797C14.8954 12.5734 15.0095 13.6605 15.2376 14.6409C15.4799 15.6215 15.8221 16.4599 16.264 17.1562C16.6917 17.8526 17.212 18.3925 17.8249 18.7762C18.438 19.1599 19.1151 19.3517 19.8564 19.3517C20.5977 19.3517 21.2748 19.1599 21.8878 18.7762C22.5008 18.3925 23.0283 17.8526 23.4702 17.1562C23.8979 16.4599 24.2257 15.6215 24.4538 14.6409C24.6962 13.6605 24.8173 12.5734 24.8173 11.3797C24.8173 10.3005 24.7183 9.30836 24.5201 8.40338L24.887 7.43104C25.0958 6.87757 25.3426 6.39445 25.6242 5.97714C25.6994 5.86821 25.7771 5.76426 25.8573 5.66509C25.9269 5.57884 25.9984 5.49631 26.0717 5.41728L26.0878 5.40382C26.5842 5.88377 27.0089 6.43333 27.362 7.0527C28.089 8.28904 28.4525 9.73845 28.4525 11.4011C28.4525 13.0637 28.089 14.5202 27.362 15.7707C26.8787 16.6088 26.2611 17.3229 25.5092 17.9129C25.8249 18.2573 26.1716 18.5451 26.5494 18.7762C27.1909 19.1599 27.9037 19.3517 28.6877 19.3517C29.2722 19.3517 29.8282 19.2523 30.3557 19.0533C30.8973 18.8543 31.3108 18.6057 31.5959 18.3072V12.8719C31.5959 12.3603 31.4391 11.9481 31.1254 11.6355C30.8118 11.3229 30.3984 11.1665 29.8852 11.1665H29.8211V10.9534H35.6572C35.716 9.47694 36.0695 8.17675 36.7176 7.0527C37.4446 5.80221 38.4496 4.8359 39.7326 4.1538C41.0299 3.45752 42.5338 3.10938 44.2445 3.10938C45.9552 3.10938 47.452 3.45752 48.735 4.1538C50.0321 4.8359 51.0373 5.80221 51.7503 7.0527C52.2186 7.84923 52.5362 8.73426 52.7026 9.70772V5.32616C52.7026 4.81465 52.546 4.40251 52.2323 4.08989C51.9186 3.77728 51.5051 3.62097 50.9918 3.62097H50.9707V3.4078H63.8365C64.9342 3.42199 65.8894 3.61383 66.7017 3.98331C67.5288 4.33859 68.1698 4.8359 68.6264 5.47543C68.7982 5.70875 68.9381 5.95733 69.0472 6.22104C69.2224 5.39787 69.6482 4.72298 70.324 4.19648C71.2508 3.47171 72.4698 3.10938 73.9805 3.10938C74.3514 3.10938 74.6509 3.12357 74.879 3.15205C74.9754 3.16335 75.0693 3.17573 75.1613 3.18929C75.3003 3.20981 75.4344 3.23287 75.5631 3.25854C75.7911 3.30121 76.0549 3.33674 76.3544 3.36513C76.6539 3.3936 77.0385 3.4078 77.5088 3.4078H84.2639V3.62097H84.1998C83.6865 3.62097 83.2735 3.77728 82.9598 4.08989C82.6461 4.40251 82.489 4.81465 82.489 5.32616V13.7884C82.489 15.2946 82.8742 16.4884 83.6439 17.3693C84.4279 18.2362 85.483 18.6696 86.8086 18.6696C88.1485 18.6696 89.2036 18.229 89.9733 17.3481C90.7431 16.4528 91.1282 15.2663 91.1282 13.7884V5.64592C91.1282 5.03489 90.9428 4.55176 90.5723 4.19648C90.2014 3.84119 89.7096 3.64936 89.0969 3.62097V3.4078H96.154L101.372 15.4509L106.589 3.4078H110.588V3.62097C110.132 3.62097 109.746 3.75594 109.433 4.02598C109.119 4.29592 108.977 4.6654 109.005 5.13431L110.096 17.753C110.167 18.2362 110.395 18.5986 110.78 18.8401C111.179 19.0817 111.571 19.2025 111.956 19.2025V19.3943H105.327V19.2025C105.57 19.2025 105.819 19.1457 106.076 19.0319C106.332 18.9183 106.539 18.7548 106.696 18.5417C106.867 18.3285 106.931 18.0799 106.888 17.7957L105.84 6.02957L99.8961 19.6927L93.9088 6.00826L92.9036 17.2202C92.8464 17.7885 93.0103 18.2504 93.3954 18.6057C93.7801 18.9609 94.2508 19.1527 94.8068 19.1812V19.3943H90.5302V19.1812C91.0715 19.1527 91.528 18.9538 91.8985 18.5844C92.2694 18.2148 92.4828 17.753 92.54 17.1988L93.6093 5.41143C93.3382 4.85723 92.9961 4.42384 92.5826 4.11123C92.5121 4.05346 92.4382 4.00084 92.36 3.95329C92.2479 4.02344 92.1437 4.10445 92.0477 4.19648C91.6768 4.55176 91.4918 5.03489 91.4918 5.64592V13.7884C91.4918 14.9821 91.2422 16.0194 90.7431 16.9004C90.2586 17.7815 89.553 18.4706 88.6261 18.968C87.7139 19.4511 86.6232 19.6927 85.3547 19.6927C84.1 19.6927 83.0097 19.4511 82.0829 18.968C81.1565 18.4848 80.4362 17.8027 79.9233 16.9217C79.4242 16.0265 79.1746 14.9821 79.1746 13.7884V5.32616C79.1746 4.81465 79.018 4.40251 78.7043 4.08989C78.4019 3.78858 78.007 3.63254 77.5196 3.6216L77.7227 7.71353H77.5088C77.3096 6.39192 76.8819 5.34748 76.2262 4.58015C75.57 3.8128 74.7791 3.42913 73.8523 3.42913C73.1965 3.42913 72.669 3.62097 72.2702 4.00464C71.8851 4.38831 71.6927 4.89992 71.6927 5.53933C71.6927 6.09348 71.8709 6.6264 72.2271 7.13801C72.5981 7.63533 73.2323 8.21796 74.1302 8.88587L75.0498 9.56796C75.9908 10.2501 76.7322 10.8824 77.2739 11.465C77.8298 12.0334 78.2287 12.5876 78.4714 13.1276C78.7136 13.6676 78.835 14.2431 78.835 14.8541C78.835 15.792 78.5996 16.6233 78.1288 17.348C77.6586 18.0727 77.0028 18.6411 76.1616 19.0533C75.3351 19.4511 74.3583 19.6643 73.2323 19.6927C72.8618 19.6927 72.555 19.6785 72.3128 19.6501C72.0847 19.6216 71.8567 19.5861 71.6286 19.5435C71.4006 19.5008 71.1226 19.4653 70.7948 19.4369C70.4669 19.4086 70.0177 19.3943 69.4475 19.3943L68.6988 13.8523H68.9557C69.1696 15.6001 69.6541 16.9501 70.4096 17.9023C71.1794 18.8401 72.163 19.309 73.3605 19.309C74.2443 19.309 74.9641 19.0604 75.5205 18.563C76.0764 18.0656 76.3544 17.419 76.3544 16.6233C76.3544 16.2822 76.2903 15.9554 76.1616 15.6428C76.0476 15.3302 75.8484 14.9963 75.5631 14.6409C75.2778 14.2858 74.9 13.9021 74.4297 13.4899C73.9595 13.0637 73.3747 12.5876 72.6764 12.0618L71.7994 11.4011C70.7307 10.5911 69.9893 9.86631 69.5758 9.22689C69.4451 9.02494 69.335 8.81728 69.2459 8.60392C69.1388 9.11957 68.9322 9.59011 68.6264 10.0156C68.1698 10.655 67.5141 11.1595 66.6592 11.5289C65.818 11.8842 64.8201 12.0618 63.6653 12.0618H61.698V17.4759C61.698 17.9875 61.8546 18.3996 62.1683 18.7122C62.482 19.0249 62.8955 19.1812 63.4088 19.1812H63.4514V19.3943H50.9707V19.1812H50.9918C51.5051 19.1812 51.9186 19.0249 52.2323 18.7122C52.546 18.3996 52.7026 17.9875 52.7026 17.4759V13.0971C52.5362 14.0739 52.2186 14.965 51.7503 15.7707C51.0373 17.007 50.0321 17.9733 48.735 18.6696C47.452 19.3517 45.9552 19.6927 44.2445 19.6927C42.5338 19.6927 41.0299 19.3517 39.7326 18.6696C38.4496 17.9733 37.4446 17.007 36.7176 15.7707C36.0077 14.5253 35.6513 13.0757 35.6484 11.4216C35.5523 11.4822 35.463 11.5534 35.3807 11.6355C35.0671 11.9481 34.9103 12.3603 34.9103 12.8719V18.3072C34.6252 18.5914 34.169 18.8401 33.5418 19.0533C32.9288 19.2523 32.2303 19.4086 31.4462 19.5222C30.6764 19.6359 29.9066 19.6927 29.1368 19.6927C27.276 19.6927 25.6554 19.3643 24.2753 18.7072C23.0082 19.3643 21.5353 19.6927 19.8564 19.6927ZM46.2759 18.7762C45.663 19.1599 44.9858 19.3517 44.2445 19.3517C43.5032 19.3517 42.8261 19.1599 42.2131 18.7762C41.6001 18.3925 41.0798 17.8526 40.6521 17.1562C40.2102 16.4599 39.868 15.6215 39.6257 14.6409C39.3976 13.6605 39.2835 12.5734 39.2835 11.3797C39.2835 10.1861 39.3976 9.09894 39.6257 8.11845C39.868 7.12372 40.2102 6.27831 40.6521 5.58201C41.0798 4.88562 41.6001 4.34564 42.2131 3.96197C42.8261 3.5783 43.5032 3.38646 44.2445 3.38646C44.9858 3.38646 45.663 3.5783 46.2759 3.96197C46.8889 4.34564 47.4164 4.88562 47.8583 5.58201C48.286 6.27831 48.6138 7.12372 48.8419 8.11845C49.0842 9.09894 49.2056 10.1861 49.2056 11.3797C49.2056 12.5734 49.0842 13.6605 48.8419 14.6409C48.6138 15.6215 48.286 16.4599 47.8583 17.1562C47.4164 17.8526 46.8889 18.3925 46.2759 18.7762ZM57.9343 18.7122C57.7342 18.912 57.4929 19.0479 57.2111 19.1201C56.9292 19.0479 56.6879 18.912 56.4873 18.7122C56.1741 18.3996 56.017 17.9875 56.017 17.4759V5.32616C56.017 4.81465 56.1741 4.40251 56.4873 4.08989C56.6879 3.8901 56.9292 3.75413 57.2111 3.68208C57.4929 3.75413 57.7342 3.8901 57.9343 4.08989C58.248 4.40251 58.4051 4.81465 58.4051 5.32616V17.4759C58.4051 17.9875 58.248 18.3996 57.9343 18.7122ZM62.9596 11.7847H61.698V3.68488H62.9381C63.5512 3.68488 64.0856 3.86253 64.5422 4.21781C64.9983 4.55881 65.3477 5.03489 65.5899 5.64592C65.8463 6.25694 65.9745 6.95323 65.9745 7.73479C65.9745 8.5164 65.8463 9.2127 65.5899 9.82372C65.3477 10.4347 64.9983 10.9179 64.5422 11.2731C64.1003 11.6143 63.5728 11.7847 62.9596 11.7847Z" fill="white"/>
<path d="M114.773 1.66085C114.773 2.47888 114.108 3.14202 113.287 3.14202C112.466 3.14202 111.801 2.47888 111.801 1.66085C111.801 0.84283 112.466 0.179688 113.287 0.179688C114.108 0.179688 114.773 0.84283 114.773 1.66085Z" fill="white"/>
</g>
<defs>
<clipPath id="clip0_15596_1520">
<rect width="115" height="20" fill="white"/>
</clipPath>
</defs>
</svg>
