<svg width="132" height="32" viewBox="0 0 132 32" fill="none" xmlns="http://www.w3.org/2000/svg">
<g clip-path="url(#clip0_14237_1981)">
<path d="M38.457 22.5963H47.7854V19.7865H41.7725V9.20312H38.457V22.5963Z" fill="#C1C1C1"/>
<path d="M53.3149 20.7219C51.985 20.7219 51.2919 19.5605 51.2919 17.8185C51.2919 16.0764 51.985 14.8963 53.3149 14.8963C54.6449 14.8963 55.3567 16.0764 55.3567 17.8185C55.3567 19.5605 54.6449 20.7219 53.3149 20.7219ZM53.3337 22.8948C56.4244 22.8948 58.4474 20.7032 58.4474 17.8185C58.4474 14.9338 56.4244 12.7422 53.3337 12.7422C50.2617 12.7422 48.2012 14.9338 48.2012 17.8185C48.2012 20.7032 50.2617 22.8948 53.3337 22.8948Z" fill="#C1C1C1"/>
<path d="M63.7972 25.9137C65.2208 25.9137 66.4758 25.5952 67.3187 24.846C68.0867 24.1529 68.5925 23.1039 68.5925 21.6616V13.0075H65.6704V14.0378H65.6329C65.0709 13.2323 64.2093 12.7266 62.9355 12.7266C60.5566 12.7266 58.9082 14.7121 58.9082 17.5219C58.9082 20.4628 60.9125 22.0737 63.0666 22.0737C64.228 22.0737 64.9585 21.6054 65.5205 20.9685H65.5954V21.9238C65.5954 23.0852 65.0522 23.7595 63.7597 23.7595C62.7482 23.7595 62.2424 23.3287 62.0739 22.823H59.1143C59.414 24.8272 61.156 25.9137 63.7972 25.9137ZM63.7785 19.8071C62.6358 19.8071 61.8865 18.8706 61.8865 17.4282C61.8865 15.9671 62.6358 15.0306 63.7785 15.0306C65.0522 15.0306 65.7265 16.117 65.7265 17.4095C65.7265 18.7582 65.1084 19.8071 63.7785 19.8071Z" fill="#C1C1C1"/>
<path d="M74.6001 20.7219C73.2701 20.7219 72.5771 19.5605 72.5771 17.8185C72.5771 16.0764 73.2701 14.8963 74.6001 14.8963C75.93 14.8963 76.6418 16.0764 76.6418 17.8185C76.6418 19.5605 75.93 20.7219 74.6001 20.7219ZM74.6188 22.8948C77.7095 22.8948 79.7322 20.7032 79.7322 17.8185C79.7322 14.9338 77.7095 12.7422 74.6188 12.7422C71.5468 12.7422 69.4863 14.9338 69.4863 17.8185C69.4863 20.7032 71.5468 22.8948 74.6188 22.8948Z" fill="#C1C1C1"/>
<path d="M80.623 22.5963H83.6763V13.0057H80.623V22.5963ZM80.623 11.6757H83.6763V9.20312H80.623V11.6757Z" fill="#C1C1C1"/>
<path d="M85.002 25.7638H88.0552V21.6054H88.0927C88.6921 22.4109 89.5725 22.8979 90.8088 22.8979C93.3188 22.8979 94.986 20.9123 94.986 17.8029C94.986 14.9182 93.4312 12.7266 90.8837 12.7266C89.5725 12.7266 88.6359 13.3072 87.9803 14.1689H87.9241V13.0075H85.002V25.7638ZM90.022 20.5377C88.7108 20.5377 87.9616 19.47 87.9616 17.9152C87.9616 16.3605 88.6359 15.1804 89.9659 15.1804C91.2771 15.1804 91.8952 16.2669 91.8952 17.9152C91.8952 19.5449 91.1834 20.5377 90.022 20.5377Z" fill="#C1C1C1"/>
<path d="M99.9572 22.8979C102.467 22.8979 104.322 21.8114 104.322 19.7135C104.322 17.2596 102.336 16.8288 100.65 16.5478C99.4327 16.3231 98.3462 16.2294 98.3462 15.5551C98.3462 14.9556 98.9269 14.6747 99.6762 14.6747C100.519 14.6747 101.1 14.9369 101.212 15.7986H104.022C103.872 13.9067 102.411 12.7266 99.6949 12.7266C97.4284 12.7266 95.5552 13.7755 95.5552 15.7986C95.5552 18.0464 97.3347 18.4959 99.0018 18.7769C100.276 19.0017 101.437 19.0953 101.437 19.957C101.437 20.5751 100.856 20.9123 99.9384 20.9123C98.9269 20.9123 98.29 20.444 98.1777 19.4887H95.293C95.3866 21.6054 97.1474 22.8979 99.9572 22.8979Z" fill="#C1C1C1"/>
<path d="M108.469 22.8794C109.799 22.8794 110.642 22.3549 111.335 21.4183H111.392V22.5984H114.314V13.0078H111.26V18.3651C111.26 19.5077 110.624 20.2944 109.575 20.2944C108.6 20.2944 108.132 19.7138 108.132 18.6648V13.0078H105.098V19.3017C105.098 21.4371 106.259 22.8794 108.469 22.8794Z" fill="#C1C1C1"/>
<path d="M115.643 22.5982H118.696V17.2222C118.696 16.0795 119.258 15.2741 120.213 15.2741C121.131 15.2741 121.562 15.8735 121.562 16.9037V22.5982H124.615V17.2222C124.615 16.0795 125.158 15.2741 126.132 15.2741C127.05 15.2741 127.481 15.8735 127.481 16.9037V22.5982H130.534V16.3605C130.534 14.2064 129.448 12.7266 127.275 12.7266C126.039 12.7266 125.008 13.2511 124.259 14.4124H124.222C123.735 13.3822 122.779 12.7266 121.524 12.7266C120.138 12.7266 119.22 13.3822 118.621 14.375H118.565V13.0075H115.643V22.5982Z" fill="#C1C1C1"/>
<path d="M19.8305 1.54518L16.7608 0.722656L14.174 10.377L11.8385 1.66099L8.7688 2.48351L11.2921 11.9005L5.00713 5.61552L2.75996 7.86269L9.6538 14.7566L1.06862 12.4562L0.246094 15.5258L9.62648 18.0393C9.51908 17.5761 9.46226 17.0934 9.46226 16.5975C9.46226 13.0872 12.3079 10.2415 15.8182 10.2415C19.3286 10.2415 22.1742 13.0872 22.1742 16.5975C22.1742 17.0902 22.1181 17.5699 22.012 18.0304L30.5371 20.3147L31.3595 17.245L21.9419 14.7215L30.5276 12.421L29.7051 9.35132L20.2878 11.8746L26.5727 5.58972L24.3256 3.34254L17.5274 10.1408L19.8305 1.54518Z" fill="#C1C1C1"/>
<path d="M22.005 18.0625C21.7418 19.1752 21.1862 20.1747 20.4238 20.9756L26.5998 27.1517L28.847 24.9045L22.005 18.0625Z" fill="#C1C1C1"/>
<path d="M20.3596 21.0391C19.5881 21.8271 18.613 22.4152 17.5195 22.7183L19.7669 31.1054L22.8365 30.2828L20.3596 21.0391Z" fill="#C1C1C1"/>
<path d="M17.4048 22.7515C16.8974 22.882 16.3657 22.9513 15.8177 22.9513C15.2306 22.9513 14.6621 22.8717 14.1224 22.7227L11.873 31.1174L14.9427 31.9399L17.4048 22.7515Z" fill="#C1C1C1"/>
<path d="M14.0147 22.6923C12.938 22.3742 11.9802 21.7786 11.2244 20.9883L5.0332 27.1795L7.28038 29.4267L14.0147 22.6923Z" fill="#C1C1C1"/>
<path d="M11.1745 20.9317C10.4316 20.1364 9.89051 19.1502 9.63294 18.0547L1.08008 20.3464L1.9026 23.4161L11.1745 20.9317Z" fill="#C1C1C1"/>
</g>
<defs>
<clipPath id="clip0_14237_1981">
<rect width="131.122" height="32" fill="white"/>
</clipPath>
</defs>
</svg>
