<svg width="62" height="20" viewBox="0 0 62 20" fill="none" xmlns="http://www.w3.org/2000/svg">
<g clip-path="url(#clip0_15596_1514)">
<path d="M58.3391 5.9142L54.0117 0H62.0001L58.3391 5.9142Z" fill="white"/>
<path d="M48.7752 0.000765885H51.6394L57.2986 7.7347L49.7069 19.9993L41.7925 19.9996L39.4487 16.7955L37.4654 20L27.1822 19.9996L24.8384 16.7955L22.8556 19.9993L5.85905 19.9996L0 11.9911L7.42201 0.000765885H13.9111L6.6469 11.7361L8.67602 14.5098L19.7648 14.5093L23.7999 7.98975L21.9717 5.49065H19.5948L15.7289 11.7353L16.6113 12.9412H9.77811L9.08245 11.9903L16.5036 0.000765885H24.7883L26.9315 2.9299L28.7443 0.00153177L42.6513 0.000382943L39.2528 5.49065L31.8354 5.49105L30.4468 7.7343L30.4472 7.7347L27.97 11.7361L29.9991 14.5098H34.3747L35.5887 12.5491H30.7403L30.2872 11.8173L33.2326 7.0592H45.4751L42.5803 11.7357L44.6094 14.5093H46.6162L50.6515 7.98975L48.823 5.49065H41.622L45.0205 0H48.7752V0.000765885Z" fill="white"/>
</g>
<defs>
<clipPath id="clip0_15596_1514">
<rect width="62" height="20" fill="white"/>
</clipPath>
</defs>
</svg>
