<svg width="88" height="20" viewBox="0 0 88 20" fill="none" xmlns="http://www.w3.org/2000/svg">
<g clip-path="url(#clip0_15596_1517)">
<path fill-rule="evenodd" clip-rule="evenodd" d="M7.5 14C6.83696 14 6.20107 13.7366 5.73223 13.2678C5.26339 12.7989 5 12.163 5 11.5V0H0V11.5C0 15.642 3.358 19 7.5 19H13V14H7.5ZM22.5 5C21.9091 5 21.3239 5.1164 20.7779 5.34254C20.232 5.56869 19.7359 5.90016 19.318 6.31802C18.9002 6.73588 18.5687 7.23196 18.3425 7.77792C18.1164 8.32389 18 8.90905 18 9.5C18 10.0909 18.1164 10.6761 18.3425 11.2221C18.5687 11.768 18.9002 12.2641 19.318 12.682C19.7359 13.0998 20.232 13.4313 20.7779 13.6575C21.3239 13.8836 21.9091 14 22.5 14C23.6935 14 24.8381 13.5259 25.682 12.682C26.5259 11.8381 27 10.6935 27 9.5C27 8.30653 26.5259 7.16193 25.682 6.31802C24.8381 5.47411 23.6935 5 22.5 5ZM13 9.5C13 4.2535 17.2535 0 22.5 0C27.7465 0 32 4.2535 32 9.5C32 14.7465 27.7465 19 22.5 19C17.2535 19 13 14.7465 13 9.5ZM76.5 5C75.3065 5 74.1619 5.47411 73.318 6.31802C72.4741 7.16193 72 8.30653 72 9.5C72 10.6935 72.4741 11.8381 73.318 12.682C74.1619 13.5259 75.3065 14 76.5 14C77.6935 14 78.8381 13.5259 79.682 12.682C80.5259 11.8381 81 10.6935 81 9.5C81 8.30653 80.5259 7.16193 79.682 6.31802C78.8381 5.47411 77.6935 5 76.5 5ZM67 9.5C67 4.2535 71.2535 0 76.5 0C81.7465 0 86 4.2535 86 9.5C86 14.7465 81.7465 19 76.5 19C71.2535 19 67 14.7465 67 9.5ZM42.5 0C37.2535 0 33 4.2535 33 9.5C33 14.7465 37.2535 19 42.5 19H56.5C57.4845 19 58.434 18.85 59.327 18.572L62 20L64.884 14.598C65.6166 13.2228 65.9999 11.6886 66 10.1305V9.5C66 4.2535 61.7465 0 56.5 0H42.5ZM61 9.5C61 8.30653 60.5259 7.16193 59.682 6.31802C58.8381 5.47411 57.6935 5 56.5 5H42.5C41.9091 5 41.3239 5.1164 40.7779 5.34254C40.232 5.56869 39.7359 5.90016 39.318 6.31802C38.9002 6.73588 38.5687 7.23196 38.3425 7.77792C38.1164 8.32389 38 8.90905 38 9.5C38 10.0909 38.1164 10.6761 38.3425 11.2221C38.5687 11.768 38.9002 12.2641 39.318 12.682C39.7359 13.0998 40.232 13.4313 40.7779 13.6575C41.3239 13.8836 41.9091 14 42.5 14H56.5C57.6874 14 58.8268 13.5307 59.6697 12.6944C60.5126 11.858 60.9908 10.7224 61 9.535V9.5Z" fill="white"/>
<path d="M88 1.25C88 1.58152 87.8683 1.89946 87.6339 2.13388C87.3995 2.3683 87.0815 2.5 86.75 2.5C86.4185 2.5 86.1005 2.3683 85.8661 2.13388C85.6317 1.89946 85.5 1.58152 85.5 1.25C85.5 0.918479 85.6317 0.600537 85.8661 0.366117C86.1005 0.131696 86.4185 0 86.75 0C87.0815 0 87.3995 0.131696 87.6339 0.366117C87.8683 0.600537 88 0.918479 88 1.25Z" fill="white"/>
</g>
<defs>
<clipPath id="clip0_15596_1517">
<rect width="88" height="20" fill="white"/>
</clipPath>
</defs>
</svg>
