<svg width="131" height="32" viewBox="0 0 131 32" fill="none" xmlns="http://www.w3.org/2000/svg">
<g clip-path="url(#clip0_14237_1970)">
<path d="M37.9551 22.4752H47.2835V19.6654H41.2706V9.08203H37.9551V22.4752Z" fill="#C1C1C1"/>
<path d="M52.8091 20.5969C51.4791 20.5969 50.786 19.4355 50.786 17.6935C50.786 15.9514 51.4791 14.7713 52.8091 14.7713C54.139 14.7713 54.8508 15.9514 54.8508 17.6935C54.8508 19.4355 54.139 20.5969 52.8091 20.5969ZM52.8278 22.7698C55.9185 22.7698 57.9416 20.5782 57.9416 17.6935C57.9416 14.8088 55.9185 12.6172 52.8278 12.6172C49.7558 12.6172 47.6953 14.8088 47.6953 17.6935C47.6953 20.5782 49.7558 22.7698 52.8278 22.7698Z" fill="#C1C1C1"/>
<path d="M63.2913 25.7887C64.7149 25.7887 65.97 25.4702 66.8129 24.721C67.5809 24.0279 68.0866 22.9789 68.0866 21.5366V12.8825H65.1645V13.9128H65.127C64.5651 13.1073 63.7034 12.6016 62.4297 12.6016C60.0507 12.6016 58.4023 14.5871 58.4023 17.3969C58.4023 20.3378 60.4066 21.9487 62.5608 21.9487C63.7222 21.9487 64.4527 21.4804 65.0146 20.8435H65.0896V21.7988C65.0896 22.9602 64.5463 23.6345 63.2539 23.6345C62.2423 23.6345 61.7366 23.2037 61.568 22.698H58.6084C58.9081 24.7022 60.6501 25.7887 63.2913 25.7887ZM63.2726 19.6821C62.13 19.6821 61.3807 18.7456 61.3807 17.3032C61.3807 15.8421 62.13 14.9056 63.2726 14.9056C64.5463 14.9056 65.2207 15.992 65.2207 17.2845C65.2207 18.6332 64.6025 19.6821 63.2726 19.6821Z" fill="#C1C1C1"/>
<path d="M74.0962 20.5969C72.7662 20.5969 72.0732 19.4355 72.0732 17.6935C72.0732 15.9514 72.7662 14.7713 74.0962 14.7713C75.4261 14.7713 76.1379 15.9514 76.1379 17.6935C76.1379 19.4355 75.4261 20.5969 74.0962 20.5969ZM74.1149 22.7698C77.2056 22.7698 79.2289 20.5782 79.2289 17.6935C79.2289 14.8088 77.2056 12.6172 74.1149 12.6172C71.0429 12.6172 68.9824 14.8088 68.9824 17.6935C68.9824 20.5782 71.0429 22.7698 74.1149 22.7698Z" fill="#C1C1C1"/>
<path d="M80.1211 22.4752H83.1744V12.8846H80.1211V22.4752ZM80.1211 11.5546H83.1744V9.08203H80.1211V11.5546Z" fill="#C1C1C1"/>
<path d="M84.498 25.6388H87.5513V21.4804H87.5888C88.1882 22.2859 89.0686 22.7729 90.3049 22.7729C92.8149 22.7729 94.482 20.7873 94.482 17.6779C94.482 14.7932 92.9273 12.6016 90.3798 12.6016C89.0686 12.6016 88.132 13.1822 87.4764 14.0439H87.4202V12.8825H84.498V25.6388ZM89.5181 20.4127C88.2069 20.4127 87.4577 19.345 87.4577 17.7902C87.4577 16.2355 88.132 15.0554 89.4619 15.0554C90.7732 15.0554 91.3913 16.1419 91.3913 17.7902C91.3913 19.4199 90.6795 20.4127 89.5181 20.4127Z" fill="#C1C1C1"/>
<path d="M99.4533 22.7729C101.963 22.7729 103.818 21.6864 103.818 19.5885C103.818 17.1346 101.832 16.7038 100.146 16.4228C98.9288 16.1981 97.8423 16.1044 97.8423 15.4301C97.8423 14.8306 98.423 14.5497 99.1723 14.5497C100.015 14.5497 100.596 14.8119 100.708 15.6736H103.518C103.368 13.7817 101.907 12.6016 99.191 12.6016C96.9245 12.6016 95.0513 13.6505 95.0513 15.6736C95.0513 17.9214 96.8308 18.3709 98.4979 18.6519C99.7717 18.8767 100.933 18.9703 100.933 19.832C100.933 20.4501 100.352 20.7873 99.4345 20.7873C98.423 20.7873 97.7861 20.319 97.6738 19.3637H94.7891C94.8827 21.4804 96.6435 22.7729 99.4533 22.7729Z" fill="#C1C1C1"/>
<path d="M107.963 22.7544C109.293 22.7544 110.136 22.2299 110.829 21.2934H110.886V22.4734H113.808V12.8828H110.755V18.2401C110.755 19.3827 110.118 20.1694 109.069 20.1694C108.095 20.1694 107.626 19.5888 107.626 18.5398V12.8828H104.592V19.1767C104.592 21.3121 105.753 22.7544 107.963 22.7544Z" fill="#C1C1C1"/>
<path d="M115.137 22.4732H118.19V17.0972C118.19 15.9545 118.752 15.1491 119.707 15.1491C120.625 15.1491 121.056 15.7485 121.056 16.7787V22.4732H124.109V17.0972C124.109 15.9545 124.652 15.1491 125.626 15.1491C126.544 15.1491 126.975 15.7485 126.975 16.7787V22.4732H130.028V16.2355C130.028 14.0814 128.942 12.6016 126.769 12.6016C125.533 12.6016 124.503 13.1261 123.753 14.2874H123.716C123.229 13.2572 122.274 12.6016 121.018 12.6016C119.632 12.6016 118.714 13.2572 118.115 14.25H118.059V12.8825H115.137V22.4732Z" fill="#C1C1C1"/>
<path fill-rule="evenodd" clip-rule="evenodd" d="M6.75147 3.03465C5.63486 3.81542 4.62514 4.73854 3.74862 5.7777C7.33051 5.44516 11.8812 5.98816 17.1645 8.62982C22.8063 11.4507 27.3493 11.546 30.5111 10.9362C30.2242 10.0676 29.863 9.23275 29.4352 8.43915C25.8158 8.82088 21.1758 8.3156 15.7683 5.61191C12.3345 3.89499 9.30759 3.18774 6.75147 3.03465ZM27.3209 5.4298C24.4627 2.23631 20.309 0.226562 15.6859 0.226562C14.3282 0.226562 13.0109 0.399914 11.7551 0.725669C13.456 1.18975 15.2628 1.8687 17.1645 2.81955C21.1236 4.79907 24.5416 5.43644 27.3209 5.4298ZM31.1871 13.9851C27.3674 14.7393 22.0928 14.5844 15.7683 11.4222C9.85565 8.46584 5.14968 8.50307 1.9758 9.2084C1.81198 9.24477 1.65201 9.28301 1.4959 9.32282C1.08036 10.2265 0.748667 11.1769 0.510671 12.1637C0.764863 12.0958 1.02753 12.0313 1.29854 11.971C5.14901 11.1154 10.5894 11.1525 17.1645 14.4401C23.0772 17.3964 27.7831 17.3592 30.9571 16.6539C31.0658 16.6297 31.173 16.6048 31.2783 16.579C31.2899 16.3329 31.2957 16.0853 31.2957 15.8363C31.2957 15.21 31.2588 14.5922 31.1871 13.9851ZM30.7687 19.8732C26.986 20.5345 21.865 20.2807 15.7683 17.2324C9.85565 14.2761 5.14968 14.3133 1.9758 15.0187C1.27129 15.1751 0.637529 15.3658 0.0784587 15.5671C0.0769344 15.6566 0.0761719 15.7464 0.0761719 15.8363C0.0761719 24.4573 7.06489 31.4461 15.6859 31.4461C22.9109 31.4461 28.9895 26.5375 30.7687 19.8732Z" fill="#C1C1C1"/>
</g>
<defs>
<clipPath id="clip0_14237_1970">
<rect width="130.341" height="32" fill="white"/>
</clipPath>
</defs>
</svg>
