<svg width="133" height="32" viewBox="0 0 133 32" fill="none" xmlns="http://www.w3.org/2000/svg">
<g clip-path="url(#clip0_14237_1959)">
<path d="M40.0215 22.8854H49.3499V20.0756H43.337V9.49219H40.0215V22.8854Z" fill="#C1C1C1"/>
<path d="M54.8755 21.0149C53.5455 21.0149 52.8524 19.8535 52.8524 18.1114C52.8524 16.3694 53.5455 15.1893 54.8755 15.1893C56.2054 15.1893 56.9172 16.3694 56.9172 18.1114C56.9172 19.8535 56.2054 21.0149 54.8755 21.0149ZM54.8942 23.1877C57.9849 23.1877 60.008 20.9961 60.008 18.1114C60.008 15.2268 57.9849 13.0352 54.8942 13.0352C51.8222 13.0352 49.7617 15.2268 49.7617 18.1114C49.7617 20.9961 51.8222 23.1877 54.8942 23.1877Z" fill="#C1C1C1"/>
<path d="M65.3577 26.2027C66.7813 26.2027 68.0364 25.8843 68.8793 25.135C69.6473 24.442 70.153 23.393 70.153 21.9506V13.2966H67.2309V14.3268H67.1934C66.6315 13.5214 65.7698 13.0156 64.4961 13.0156C62.1171 13.0156 60.4688 15.0012 60.4688 17.8109C60.4688 20.7518 62.473 22.3627 64.6272 22.3627C65.7886 22.3627 66.5191 21.8945 67.081 21.2576H67.156V22.2129C67.156 23.3743 66.6128 24.0486 65.3203 24.0486C64.3088 24.0486 63.803 23.6178 63.6344 23.112H60.6748C60.9745 25.1163 62.7166 26.2027 65.3577 26.2027ZM65.339 20.0962C64.1964 20.0962 63.4471 19.1596 63.4471 17.7173C63.4471 16.2562 64.1964 15.3196 65.339 15.3196C66.6128 15.3196 67.2871 16.4061 67.2871 17.6986C67.2871 19.0472 66.6689 20.0962 65.339 20.0962Z" fill="#C1C1C1"/>
<path d="M76.1626 21.0149C74.8326 21.0149 74.1396 19.8535 74.1396 18.1114C74.1396 16.3694 74.8326 15.1893 76.1626 15.1893C77.4925 15.1893 78.204 16.3694 78.204 18.1114C78.204 19.8535 77.4925 21.0149 76.1626 21.0149ZM76.1813 23.1877C79.2717 23.1877 81.2948 20.9961 81.2948 18.1114C81.2948 15.2268 79.2717 13.0352 76.1813 13.0352C73.1093 13.0352 71.0488 15.2268 71.0488 18.1114C71.0488 20.9961 73.1093 23.1877 76.1813 23.1877Z" fill="#C1C1C1"/>
<path d="M82.1875 22.8854H85.2408V13.2947H82.1875V22.8854ZM82.1875 11.9648H85.2408V9.49219H82.1875V11.9648Z" fill="#C1C1C1"/>
<path d="M86.5645 26.0529H89.6177V21.8945H89.6552C90.2546 22.6999 91.135 23.1869 92.3713 23.1869C94.8813 23.1869 96.5485 21.2014 96.5485 18.0919C96.5485 15.2072 94.9937 13.0156 92.4462 13.0156C91.135 13.0156 90.1984 13.5963 89.5428 14.458H89.4866V13.2966H86.5645V26.0529ZM91.5845 20.8267C90.2733 20.8267 89.5241 19.759 89.5241 18.2043C89.5241 16.6496 90.1984 15.4695 91.5284 15.4695C92.8396 15.4695 93.4577 16.5559 93.4577 18.2043C93.4577 19.834 92.7459 20.8267 91.5845 20.8267Z" fill="#C1C1C1"/>
<path d="M101.52 23.1869C104.03 23.1869 105.884 22.1005 105.884 20.0026C105.884 17.5487 103.899 17.1179 102.213 16.8369C100.995 16.6121 99.9087 16.5185 99.9087 15.8441C99.9087 15.2447 100.489 14.9637 101.239 14.9637C102.082 14.9637 102.662 15.226 102.775 16.0876H105.584C105.435 14.1957 103.974 13.0156 101.257 13.0156C98.9909 13.0156 97.1177 14.0646 97.1177 16.0876C97.1177 18.3354 98.8972 18.785 100.564 19.066C101.838 19.2907 102.999 19.3844 102.999 20.2461C102.999 20.8642 102.419 21.2014 101.501 21.2014C100.489 21.2014 99.8525 20.7331 99.7402 19.7778H96.8555C96.9491 21.8945 98.7099 23.1869 101.52 23.1869Z" fill="#C1C1C1"/>
<path d="M110.03 23.1685C111.36 23.1685 112.203 22.644 112.896 21.7074H112.952V22.8875H115.874V13.2969H112.821V18.6541C112.821 19.7968 112.184 20.5835 111.135 20.5835C110.161 20.5835 109.693 20.0028 109.693 18.9539V13.2969H106.658V19.5907C106.658 21.7261 107.82 23.1685 110.03 23.1685Z" fill="#C1C1C1"/>
<path d="M117.203 22.8872H120.256V17.5112C120.256 16.3686 120.818 15.5631 121.774 15.5631C122.692 15.5631 123.122 16.1626 123.122 17.1928V22.8872H126.176V17.5112C126.176 16.3686 126.719 15.5631 127.693 15.5631C128.611 15.5631 129.042 16.1626 129.042 17.1928V22.8872H132.095V16.6496C132.095 14.4954 131.008 13.0156 128.836 13.0156C127.599 13.0156 126.569 13.5401 125.82 14.7015H125.782C125.295 13.6712 124.34 13.0156 123.085 13.0156C121.699 13.0156 120.781 13.6712 120.181 14.664H120.125V13.2966H117.203V22.8872Z" fill="#C1C1C1"/>
<path fill-rule="evenodd" clip-rule="evenodd" d="M15.6878 31.4734C24.309 31.4734 31.2976 24.4847 31.2976 15.8636C31.2976 7.24263 24.309 0.253906 15.6878 0.253906C7.06684 0.253906 0.078125 7.24263 0.078125 15.8636C0.078125 24.4847 7.06684 31.4734 15.6878 31.4734ZM18.0972 12.3144C19.4278 10.9838 19.4278 8.82644 18.0972 7.49579C16.7666 6.16515 14.6092 6.16515 13.2786 7.49579C11.948 8.82644 11.948 10.9838 13.2786 12.3144L15.6878 14.7237L18.0972 12.3144ZM19.2371 18.273C20.5678 19.6036 22.7251 19.6036 24.0558 18.273C25.3863 16.9423 25.3863 14.785 24.0558 13.4543C22.7251 12.1238 20.5678 12.1238 19.2371 13.4543L16.8278 15.8637L19.2371 18.273ZM18.0972 24.2316C19.4278 22.9009 19.4278 20.7436 18.0972 19.4129L15.6878 17.0036L13.2786 19.4129C11.948 20.7436 11.948 22.9009 13.2786 24.2316C14.6092 25.5622 16.7666 25.5622 18.0972 24.2316ZM7.31998 18.273C5.98938 16.9423 5.98938 14.785 7.31998 13.4543C8.65066 12.1238 10.808 12.1238 12.1387 13.4543L14.5479 15.8637L12.1387 18.273C10.808 19.6036 8.65066 19.6036 7.31998 18.273Z" fill="#C1C1C1"/>
</g>
<defs>
<clipPath id="clip0_14237_1959">
<rect width="132.683" height="32" fill="white"/>
</clipPath>
</defs>
</svg>
