<svg width="114" height="30" viewBox="0 0 114 30" fill="none" xmlns="http://www.w3.org/2000/svg">
<path d="M36.9674 20.4262L33.715 26.0595L24.1884 26.0483L27.2218 20.7945L18.2609 5.29297L28.3456 5.33722L36.9674 20.4262Z" fill="black"/>
<path d="M9.80733 5.26367H16.3122L21.0657 13.5197L14.999 13.5194L6.05486 29.0306L1.05078 20.2749L9.80733 5.26367Z" fill="black"/>
<path d="M54.8295 23.5H52.6136L59.0227 6.04545H61.2045L67.6136 23.5H65.3977L60.1818 8.80682H60.0455L54.8295 23.5ZM55.6477 16.6818H64.5795V18.5568H55.6477V16.6818ZM74.1083 23.7727C72.8469 23.7727 71.7589 23.4943 70.8441 22.9375C69.935 22.375 69.2333 21.5909 68.739 20.5852C68.2503 19.5739 68.006 18.3977 68.006 17.0568C68.006 15.7159 68.2503 14.5341 68.739 13.5114C69.2333 12.483 69.9208 11.6818 70.8015 11.108C71.6878 10.5284 72.7219 10.2386 73.9037 10.2386C74.5856 10.2386 75.2589 10.3523 75.9236 10.5795C76.5884 10.8068 77.1935 11.1761 77.739 11.6875C78.2844 12.1932 78.7191 12.8636 79.043 13.6989C79.3668 14.5341 79.5287 15.5625 79.5287 16.7841V17.6364H69.4378V15.8977H77.4833C77.4833 15.1591 77.3356 14.5 77.0401 13.9205C76.7503 13.3409 76.3356 12.8835 75.7958 12.5483C75.2617 12.2131 74.631 12.0455 73.9037 12.0455C73.1026 12.0455 72.4094 12.2443 71.8242 12.642C71.2447 13.0341 70.7986 13.5455 70.4861 14.1761C70.1736 14.8068 70.0174 15.483 70.0174 16.2045V17.3636C70.0174 18.3523 70.1878 19.1903 70.5287 19.8778C70.8753 20.5597 71.3555 21.0795 71.9691 21.4375C72.5827 21.7898 73.2958 21.9659 74.1083 21.9659C74.6367 21.9659 75.114 21.892 75.5401 21.7443C75.9719 21.5909 76.3441 21.3636 76.6566 21.0625C76.9691 20.7557 77.2106 20.375 77.381 19.9205L79.3242 20.4659C79.1197 21.125 78.7759 21.7045 78.293 22.2045C77.81 22.6989 77.2134 23.0852 76.5032 23.3636C75.793 23.6364 74.9947 23.7727 74.1083 23.7727ZM83.1598 6.04545V23.5H81.1484V6.04545H83.1598ZM85.4037 23.5V10.4091H87.4151V23.5H85.4037ZM86.4264 8.22727C86.0344 8.22727 85.6963 8.09375 85.4122 7.8267C85.1338 7.55966 84.9946 7.23864 84.9946 6.86364C84.9946 6.48864 85.1338 6.16761 85.4122 5.90057C85.6963 5.63352 86.0344 5.5 86.4264 5.5C86.8185 5.5 87.1537 5.63352 87.4321 5.90057C87.7162 6.16761 87.8583 6.48864 87.8583 6.86364C87.8583 7.23864 87.7162 7.55966 87.4321 7.8267C87.1537 8.09375 86.8185 8.22727 86.4264 8.22727ZM91.6704 15.625V23.5H89.659V10.4091H91.6022V12.4545H91.7727C92.0795 11.7898 92.5454 11.2557 93.1704 10.8523C93.7954 10.4432 94.6022 10.2386 95.5909 10.2386C96.4772 10.2386 97.2528 10.4205 97.9176 10.7841C98.5823 11.142 99.0994 11.6875 99.4687 12.4205C99.838 13.1477 100.023 14.0682 100.023 15.1818V23.5H98.0113V15.3182C98.0113 14.2898 97.7443 13.4886 97.2102 12.9148C96.6761 12.3352 95.9431 12.0455 95.0113 12.0455C94.3693 12.0455 93.7954 12.1847 93.2897 12.4631C92.7897 12.7415 92.3948 13.1477 92.1051 13.6818C91.8153 14.2159 91.6704 14.8636 91.6704 15.625ZM107.747 23.7727C106.485 23.7727 105.397 23.4943 104.483 22.9375C103.573 22.375 102.872 21.5909 102.377 20.5852C101.889 19.5739 101.644 18.3977 101.644 17.0568C101.644 15.7159 101.889 14.5341 102.377 13.5114C102.872 12.483 103.559 11.6818 104.44 11.108C105.326 10.5284 106.36 10.2386 107.542 10.2386C108.224 10.2386 108.897 10.3523 109.562 10.5795C110.227 10.8068 110.832 11.1761 111.377 11.6875C111.923 12.1932 112.358 12.8636 112.681 13.6989C113.005 14.5341 113.167 15.5625 113.167 16.7841V17.6364H103.076V15.8977H111.122C111.122 15.1591 110.974 14.5 110.679 13.9205C110.389 13.3409 109.974 12.8835 109.434 12.5483C108.9 12.2131 108.269 12.0455 107.542 12.0455C106.741 12.0455 106.048 12.2443 105.463 12.642C104.883 13.0341 104.437 13.5455 104.125 14.1761C103.812 14.8068 103.656 15.483 103.656 16.2045V17.3636C103.656 18.3523 103.826 19.1903 104.167 19.8778C104.514 20.5597 104.994 21.0795 105.608 21.4375C106.221 21.7898 106.934 21.9659 107.747 21.9659C108.275 21.9659 108.752 21.892 109.179 21.7443C109.61 21.5909 109.983 21.3636 110.295 21.0625C110.608 20.7557 110.849 20.375 111.019 19.9205L112.963 20.4659C112.758 21.125 112.414 21.7045 111.931 22.2045C111.448 22.6989 110.852 23.0852 110.142 23.3636C109.431 23.6364 108.633 23.7727 107.747 23.7727Z" fill="black"/>
</svg>
