<svg width="182" height="182" viewBox="0 0 182 182" fill="none" xmlns="http://www.w3.org/2000/svg">
<rect width="181.256" height="181.256" fill="#131313"/>
<path d="M16.1169 44.6289V29.4848H25.9758V31.3142H18.109V36.1116H25.5693V37.9411H18.109V42.7994H25.9758V44.6289H16.1169ZM26.1678 44.6289L30.0098 39.1404L26.1882 33.6723H28.4649L31.7376 38.429H30.579L33.8111 33.6723H36.1081L32.2865 39.1404L36.0878 44.6289H33.8111L30.579 39.8722H31.7173L28.4852 44.6289H26.1678ZM36.9769 48.6945V33.6723H38.8268V36.0303L38.5828 35.5627C38.9894 34.9123 39.545 34.3973 40.2497 34.0178C40.9544 33.6248 41.7607 33.4283 42.6687 33.4283C43.6986 33.4283 44.6202 33.679 45.4333 34.1805C46.2599 34.6819 46.9104 35.3662 47.3847 36.2336C47.8591 37.0873 48.0962 38.0631 48.0962 39.1607C48.0962 40.2313 47.8591 41.2003 47.3847 42.0676C46.9104 42.9349 46.2599 43.6193 45.4333 44.1207C44.6202 44.6221 43.6919 44.8728 42.6484 44.8728C41.7675 44.8728 40.9612 44.6763 40.2294 44.2833C39.5111 43.8903 38.9555 43.3347 38.5625 42.6165L38.8674 42.2912V48.6945H36.9769ZM42.5061 43.0433C43.1972 43.0433 43.8138 42.8739 44.3559 42.5352C44.898 42.1964 45.3181 41.7356 45.6162 41.1529C45.9279 40.5566 46.0838 39.8925 46.0838 39.1607C46.0838 38.4018 45.9279 37.7378 45.6162 37.1686C45.3181 36.5859 44.898 36.1251 44.3559 35.7863C43.8138 35.434 43.1972 35.2578 42.5061 35.2578C41.8149 35.2578 41.1916 35.4272 40.6359 35.766C40.0939 36.1048 39.6602 36.5724 39.335 37.1686C39.0233 37.7514 38.8674 38.4154 38.8674 39.1607C38.8674 39.8925 39.0233 40.5566 39.335 41.1529C39.6602 41.7356 40.0939 42.1964 40.6359 42.5352C41.1916 42.8739 41.8149 43.0433 42.5061 43.0433ZM54.8032 44.8728C53.7462 44.8728 52.8044 44.6221 51.9777 44.1207C51.151 43.6193 50.5005 42.9349 50.0262 42.0676C49.5519 41.1867 49.3148 40.2042 49.3148 39.1201C49.3148 38.0224 49.5451 37.0467 50.0059 36.1929C50.4802 35.3391 51.1172 34.6683 51.9167 34.1805C52.7298 33.679 53.6378 33.4283 54.6406 33.4283C55.4537 33.4283 56.172 33.5774 56.7954 33.8755C57.4323 34.1601 57.9676 34.5531 58.4013 35.0545C58.8485 35.5424 59.1873 36.1048 59.4176 36.7417C59.6616 37.3651 59.7835 38.0156 59.7835 38.6932C59.7835 38.8423 59.77 39.0117 59.7429 39.2014C59.7293 39.3776 59.709 39.547 59.6819 39.7096H50.697V38.0834H58.5842L57.6898 38.8152C57.8117 38.1105 57.744 37.4803 57.4865 36.9247C57.229 36.3691 56.8496 35.9286 56.3482 35.6034C55.8467 35.2782 55.2776 35.1155 54.6406 35.1155C54.0037 35.1155 53.421 35.2782 52.8924 35.6034C52.3639 35.9286 51.9506 36.3962 51.6524 37.006C51.3679 37.6023 51.2527 38.3138 51.3069 39.1404C51.2527 39.94 51.3746 40.6447 51.6728 41.2545C51.9845 41.8508 52.4181 42.3183 52.9738 42.6571C53.5429 42.9824 54.1595 43.145 54.8236 43.145C55.5554 43.145 56.172 42.9756 56.6734 42.6368C57.1748 42.298 57.5814 41.8643 57.8931 41.3358L59.4786 42.1489C59.2618 42.6503 58.923 43.1111 58.4622 43.5312C58.015 43.9378 57.4797 44.263 56.8563 44.5069C56.2465 44.7509 55.5621 44.8728 54.8032 44.8728ZM61.4353 44.6289V33.6723H63.2851V35.6847L63.0819 35.4001C63.3394 34.7767 63.7324 34.316 64.2609 34.0178C64.7894 33.7061 65.4331 33.5503 66.192 33.5503H66.8628V35.3391H65.9074C65.135 35.3391 64.5116 35.5831 64.0373 36.0709C63.563 36.5452 63.3258 37.2228 63.3258 38.1037V44.6289H61.4353ZM72.28 44.7509C71.2094 44.7509 70.3828 44.446 69.8 43.8361C69.2308 43.2263 68.9463 42.3658 68.9463 41.2545V35.4814H66.9541V33.6723H67.3607C67.8486 33.6723 68.2348 33.5232 68.5194 33.2251C68.804 32.9269 68.9463 32.5339 68.9463 32.046V31.1516H70.8367V33.6723H73.2964V35.4814H70.8367V41.1935C70.8367 41.5594 70.8909 41.8779 70.9994 42.1489C71.1213 42.42 71.3178 42.6368 71.5889 42.7994C71.8599 42.9485 72.219 43.023 72.6662 43.023C72.7611 43.023 72.8763 43.0162 73.0118 43.0027C73.1609 42.9891 73.2964 42.9756 73.4184 42.962V44.6289C73.2422 44.6696 73.0457 44.6967 72.8289 44.7102C72.612 44.7373 72.4291 44.7509 72.28 44.7509ZM75.0748 44.6289V33.6723H76.9652V44.6289H75.0748ZM75.0748 31.9241V29.4848H76.9652V31.9241H75.0748ZM83.0088 44.8728C81.9111 44.8728 80.9557 44.6018 80.1425 44.0597C79.3294 43.5177 78.7535 42.7859 78.4147 41.8643L79.9189 41.1325C80.2306 41.783 80.6575 42.298 81.1996 42.6774C81.7417 43.0569 82.3447 43.2466 83.0088 43.2466C83.605 43.2466 84.0997 43.1043 84.4927 42.8197C84.8857 42.5352 85.0822 42.1625 85.0822 41.7017C85.0822 41.3765 84.9873 41.119 84.7976 40.9293C84.6214 40.726 84.4046 40.5701 84.1471 40.4617C83.8896 40.3398 83.6525 40.2517 83.4356 40.1975L81.7891 39.7299C80.7998 39.4453 80.0748 39.0388 79.614 38.5103C79.1668 37.9817 78.9432 37.3651 78.9432 36.6604C78.9432 36.01 79.1058 35.4476 79.4311 34.9732C79.7699 34.4854 80.2239 34.1059 80.793 33.8349C81.3758 33.5638 82.0263 33.4283 82.7445 33.4283C83.7067 33.4283 84.5672 33.6723 85.3261 34.1601C86.0986 34.648 86.6474 35.3324 86.9727 36.2132L85.4278 36.9247C85.1838 36.3555 84.8179 35.9083 84.3301 35.5831C83.8422 35.2443 83.2933 35.0749 82.6835 35.0749C82.1279 35.0749 81.6875 35.2172 81.3622 35.5018C81.037 35.7728 80.8743 36.1184 80.8743 36.5385C80.8743 36.8502 80.9557 37.1076 81.1183 37.3109C81.2809 37.5007 81.4774 37.6497 81.7078 37.7581C81.9382 37.853 82.1618 37.9343 82.3786 38.0021L84.1674 38.5306C85.0619 38.7881 85.753 39.1879 86.2409 39.7299C86.7423 40.272 86.993 40.9225 86.993 41.6814C86.993 42.2912 86.8236 42.8401 86.4848 43.3279C86.146 43.8158 85.6785 44.1952 85.0822 44.4663C84.4859 44.7373 83.7948 44.8728 83.0088 44.8728ZM93.6959 44.8728C92.6389 44.8728 91.697 44.6221 90.8703 44.1207C90.0437 43.6193 89.3932 42.9349 88.9189 42.0676C88.4446 41.1867 88.2074 40.2042 88.2074 39.1201C88.2074 38.0224 88.4378 37.0467 88.8986 36.1929C89.3729 35.3391 90.0098 34.6683 90.8094 34.1805C91.6225 33.679 92.5304 33.4283 93.5333 33.4283C94.3464 33.4283 95.0646 33.5774 95.688 33.8755C96.3249 34.1601 96.8602 34.5531 97.2939 35.0545C97.7411 35.5424 98.0799 36.1048 98.3103 36.7417C98.5542 37.3651 98.6762 38.0156 98.6762 38.6932C98.6762 38.8423 98.6626 39.0117 98.6355 39.2014C98.622 39.3776 98.6017 39.547 98.5746 39.7096H89.5897V38.0834H97.4769L96.5824 38.8152C96.7044 38.1105 96.6366 37.4803 96.3792 36.9247C96.1217 36.3691 95.7422 35.9286 95.2408 35.6034C94.7394 35.2782 94.1702 35.1155 93.5333 35.1155C92.8963 35.1155 92.3136 35.2782 91.7851 35.6034C91.2566 35.9286 90.8432 36.3962 90.5451 37.006C90.2605 37.6023 90.1453 38.3138 90.1995 39.1404C90.1453 39.94 90.2673 40.6447 90.5654 41.2545C90.8771 41.8508 91.3108 42.3183 91.8664 42.6571C92.4356 42.9824 93.0522 43.145 93.7162 43.145C94.448 43.145 95.0646 42.9756 95.566 42.6368C96.0675 42.298 96.474 41.8643 96.7857 41.3358L98.3713 42.1489C98.1544 42.6503 97.8156 43.1111 97.3549 43.5312C96.9077 43.9378 96.3724 44.263 95.749 44.5069C95.1392 44.7509 94.4548 44.8728 93.6959 44.8728ZM101.446 98.6289V83.4848H106.406C107.937 83.4848 109.272 83.7964 110.41 84.4198C111.549 85.0432 112.429 85.9241 113.053 87.0624C113.676 88.1872 113.988 89.5153 113.988 91.0467C113.988 92.5645 113.676 93.8925 113.053 95.0309C112.429 96.1693 111.549 97.0569 110.41 97.6938C109.272 98.3172 107.937 98.6289 106.406 98.6289H101.446ZM103.438 96.7994H106.426C107.551 96.7994 108.52 96.5623 109.333 96.0879C110.16 95.6136 110.796 94.9496 111.244 94.0958C111.691 93.2285 111.914 92.2121 111.914 91.0467C111.914 89.8677 111.684 88.8513 111.223 87.9975C110.776 87.1437 110.139 86.4865 109.313 86.0257C108.499 85.5514 107.537 85.3142 106.426 85.3142H103.438V96.7994ZM118.549 98.8728C117.831 98.8728 117.194 98.7441 116.638 98.4866C116.096 98.2156 115.669 97.8497 115.357 97.3889C115.046 96.9146 114.89 96.3725 114.89 95.7627C114.89 95.18 115.012 94.6582 115.256 94.1975C115.513 93.7231 115.906 93.3234 116.435 92.9981C116.977 92.6729 117.655 92.4425 118.468 92.307L122.533 91.6362V93.2217L118.894 93.8316C118.19 93.9535 117.675 94.1771 117.35 94.5024C117.038 94.8276 116.882 95.2274 116.882 95.7017C116.882 96.1489 117.058 96.5216 117.411 96.8197C117.776 97.1179 118.23 97.2669 118.773 97.2669C119.464 97.2669 120.06 97.1247 120.561 96.8401C121.076 96.5419 121.476 96.1421 121.761 95.6407C122.059 95.1393 122.208 94.5837 122.208 93.9739V91.189C122.208 90.5927 121.984 90.1116 121.537 89.7457C121.103 89.3662 120.527 89.1765 119.809 89.1765C119.186 89.1765 118.63 89.3391 118.142 89.6644C117.668 89.9761 117.316 90.3962 117.085 90.9247L115.439 90.0709C115.642 89.5695 115.967 89.1223 116.415 88.7293C116.862 88.3227 117.383 88.0043 117.98 87.7739C118.576 87.5435 119.199 87.4283 119.85 87.4283C120.69 87.4283 121.429 87.591 122.066 87.9162C122.703 88.2279 123.197 88.6683 123.55 89.2375C123.915 89.7931 124.098 90.4436 124.098 91.189V98.6289H122.249V96.5555L122.594 96.6774C122.364 97.1111 122.052 97.4906 121.659 97.8158C121.266 98.141 120.805 98.3985 120.277 98.5883C119.748 98.778 119.172 98.8728 118.549 98.8728ZM130.47 98.7509C129.399 98.7509 128.572 98.446 127.99 97.8361C127.421 97.2263 127.136 96.3658 127.136 95.2545V89.4814H125.144V87.6723H125.55C126.038 87.6723 126.424 87.5232 126.709 87.2251C126.994 86.9269 127.136 86.5339 127.136 86.046V85.1516H129.026V87.6723H131.486V89.4814H129.026V95.1935C129.026 95.5594 129.081 95.8779 129.189 96.1489C129.311 96.42 129.508 96.6368 129.779 96.7994C130.05 96.9485 130.409 97.023 130.856 97.023C130.951 97.023 131.066 97.0162 131.202 97.0027C131.351 96.9891 131.486 96.9756 131.608 96.962V98.6289C131.432 98.6696 131.235 98.6967 131.019 98.7102C130.802 98.7373 130.619 98.7509 130.47 98.7509ZM136.337 98.8728C135.619 98.8728 134.982 98.7441 134.426 98.4866C133.884 98.2156 133.458 97.8497 133.146 97.3889C132.834 96.9146 132.678 96.3725 132.678 95.7627C132.678 95.18 132.8 94.6582 133.044 94.1975C133.302 93.7231 133.695 93.3234 134.223 92.9981C134.765 92.6729 135.443 92.4425 136.256 92.307L140.322 91.6362V93.2217L136.683 93.8316C135.978 93.9535 135.463 94.1771 135.138 94.5024C134.826 94.8276 134.67 95.2274 134.67 95.7017C134.67 96.1489 134.847 96.5216 135.199 96.8197C135.565 97.1179 136.019 97.2669 136.561 97.2669C137.252 97.2669 137.848 97.1247 138.35 96.8401C138.865 96.5419 139.264 96.1421 139.549 95.6407C139.847 95.1393 139.996 94.5837 139.996 93.9739V91.189C139.996 90.5927 139.773 90.1116 139.325 89.7457C138.892 89.3662 138.316 89.1765 137.598 89.1765C136.974 89.1765 136.419 89.3391 135.931 89.6644C135.456 89.9761 135.104 90.3962 134.874 90.9247L133.227 90.0709C133.43 89.5695 133.756 89.1223 134.203 88.7293C134.65 88.3227 135.172 88.0043 135.768 87.7739C136.364 87.5435 136.988 87.4283 137.638 87.4283C138.478 87.4283 139.217 87.591 139.854 87.9162C140.491 88.2279 140.986 88.6683 141.338 89.2375C141.704 89.7931 141.887 90.4436 141.887 91.189V98.6289H140.037V96.5555L140.382 96.6774C140.152 97.1111 139.84 97.4906 139.447 97.8158C139.054 98.141 138.594 98.3985 138.065 98.5883C137.537 98.778 136.961 98.8728 136.337 98.8728ZM144.33 101.454V100.54C144.75 100.431 145.069 100.221 145.285 99.9096C145.502 99.5979 145.624 99.171 145.651 98.6289H144.737V96.1896H146.708V97.9174C146.708 98.8932 146.505 99.6792 146.099 100.275C145.706 100.872 145.116 101.265 144.33 101.454ZM16.1169 152.629V137.485H18.109V152.629H16.1169ZM20.44 152.629L20.44 141.672H22.2898V143.807L21.9849 143.624C22.256 142.933 22.6896 142.397 23.2859 142.018C23.8957 141.625 24.6072 141.428 25.4203 141.428C26.2063 141.428 26.9042 141.605 27.5141 141.957C28.1375 142.309 28.6253 142.797 28.9777 143.42C29.3436 144.044 29.5265 144.749 29.5265 145.535V152.629H27.6157V146.144C27.6157 145.535 27.5073 145.02 27.2905 144.599C27.0736 144.179 26.7619 143.854 26.3554 143.624C25.9624 143.38 25.5084 143.258 24.9934 143.258C24.4785 143.258 24.0177 143.38 23.6111 143.624C23.2181 143.854 22.9065 144.186 22.6761 144.62C22.4457 145.04 22.3305 145.548 22.3305 146.144L22.3305 152.629H20.44ZM35.8704 152.751C34.7998 152.751 33.9731 152.446 33.3904 151.836C32.8212 151.226 32.5366 150.366 32.5366 149.255V143.481H30.5445V141.672H30.951C31.4389 141.672 31.8251 141.523 32.1097 141.225C32.3943 140.927 32.5366 140.534 32.5366 140.046V139.152H34.4271V141.672H36.8867V143.481H34.4271V149.194C34.4271 149.559 34.4813 149.878 34.5897 150.149C34.7117 150.42 34.9082 150.637 35.1792 150.799C35.4502 150.948 35.8094 151.023 36.2566 151.023C36.3514 151.023 36.4666 151.016 36.6022 151.003C36.7512 150.989 36.8867 150.976 37.0087 150.962V152.629C36.8325 152.67 36.636 152.697 36.4192 152.71C36.2024 152.737 36.0194 152.751 35.8704 152.751ZM43.4086 152.873C42.3516 152.873 41.4097 152.622 40.5831 152.121C39.7564 151.619 39.1059 150.935 38.6316 150.068C38.1573 149.187 37.9201 148.204 37.9201 147.12C37.9201 146.022 38.1505 145.047 38.6113 144.193C39.0856 143.339 39.7225 142.668 40.5221 142.18C41.3352 141.679 42.2431 141.428 43.246 141.428C44.0591 141.428 44.7773 141.577 45.4007 141.876C46.0377 142.16 46.573 142.553 47.0066 143.055C47.4538 143.542 47.7926 144.105 48.023 144.742C48.2669 145.365 48.3889 146.016 48.3889 146.693C48.3889 146.842 48.3753 147.012 48.3482 147.201C48.3347 147.378 48.3144 147.547 48.2873 147.71H39.3024V146.083H47.1896L46.2951 146.815C46.4171 146.11 46.3494 145.48 46.0919 144.925C45.8344 144.369 45.4549 143.929 44.9535 143.603C44.4521 143.278 43.8829 143.116 43.246 143.116C42.609 143.116 42.0263 143.278 41.4978 143.603C40.9693 143.929 40.5559 144.396 40.2578 145.006C39.9732 145.602 39.858 146.314 39.9122 147.14C39.858 147.94 39.98 148.645 40.2781 149.255C40.5898 149.851 41.0235 150.318 41.5791 150.657C42.1483 150.982 42.7649 151.145 43.4289 151.145C44.1607 151.145 44.7773 150.976 45.2788 150.637C45.7802 150.298 46.1867 149.864 46.4984 149.336L48.084 150.149C47.8672 150.65 47.5284 151.111 47.0676 151.531C46.6204 151.938 46.0851 152.263 45.4617 152.507C44.8519 152.751 44.1675 152.873 43.4086 152.873ZM50.0407 152.629V137.241H51.9312V152.629H50.0407ZM54.0514 152.629V137.241H55.9419V152.629H54.0514ZM58.0622 152.629V141.672H59.9527V152.629H58.0622ZM58.0622 139.924V137.485H59.9527V139.924H58.0622ZM67.2972 157.101C66.5247 157.101 65.8065 156.979 65.1424 156.735C64.492 156.491 63.9296 156.152 63.4552 155.719C62.9945 155.299 62.6421 154.804 62.3982 154.235L64.1667 153.422C64.3564 153.937 64.7156 154.37 65.2441 154.723C65.7861 155.089 66.4637 155.272 67.2768 155.272C67.9002 155.272 68.4626 155.15 68.9641 154.906C69.479 154.675 69.8856 154.323 70.1837 153.849C70.4819 153.388 70.6309 152.825 70.6309 152.161V149.702L70.9765 150.068C70.597 150.813 70.0482 151.382 69.33 151.775C68.6253 152.168 67.846 152.365 66.9923 152.365C65.9623 152.365 65.0408 152.127 64.2277 151.653C63.4146 151.165 62.7776 150.508 62.3169 149.681C61.8561 148.841 61.6257 147.913 61.6257 146.896C61.6257 145.867 61.8561 144.938 62.3169 144.112C62.7776 143.285 63.4078 142.634 64.2074 142.16C65.0205 141.672 65.942 141.428 66.9719 141.428C67.8257 141.428 68.5982 141.625 69.2893 142.018C69.994 142.397 70.5564 142.926 70.9765 143.603L70.6919 144.112V141.672H72.5417V152.161C72.5417 153.11 72.3181 153.957 71.8709 154.702C71.4237 155.448 70.8003 156.03 70.0008 156.451C69.2148 156.884 68.3136 157.101 67.2972 157.101ZM67.1549 150.535C67.8054 150.535 68.3881 150.373 68.9031 150.047C69.4316 149.722 69.8517 149.288 70.1634 148.746C70.4751 148.191 70.6309 147.574 70.6309 146.896C70.6309 146.232 70.4751 145.623 70.1634 145.067C69.8517 144.511 69.4316 144.071 68.9031 143.746C68.3881 143.42 67.8054 143.258 67.1549 143.258C66.4908 143.258 65.8878 143.42 65.3457 143.746C64.8036 144.071 64.3768 144.511 64.0651 145.067C63.7669 145.609 63.6179 146.219 63.6179 146.896C63.6179 147.574 63.7669 148.191 64.0651 148.746C64.3768 149.288 64.7969 149.722 65.3254 150.047C65.8675 150.373 66.4773 150.535 67.1549 150.535ZM79.7007 152.873C78.6437 152.873 77.7018 152.622 76.8752 152.121C76.0485 151.619 75.398 150.935 74.9237 150.068C74.4494 149.187 74.2123 148.204 74.2123 147.12C74.2123 146.022 74.4426 145.047 74.9034 144.193C75.3777 143.339 76.0146 142.668 76.8142 142.18C77.6273 141.679 78.5353 141.428 79.5381 141.428C80.3512 141.428 81.0695 141.577 81.6929 141.876C82.3298 142.16 82.8651 142.553 83.2987 143.055C83.746 143.542 84.0848 144.105 84.3151 144.742C84.5591 145.365 84.681 146.016 84.681 146.693C84.681 146.842 84.6675 147.012 84.6404 147.201C84.6268 147.378 84.6065 147.547 84.5794 147.71H75.5945V146.083H83.4817L82.5873 146.815C82.7092 146.11 82.6415 145.48 82.384 144.925C82.1265 144.369 81.7471 143.929 81.2456 143.603C80.7442 143.278 80.1751 143.116 79.5381 143.116C78.9012 143.116 78.3185 143.278 77.7899 143.603C77.2614 143.929 76.8481 144.396 76.5499 145.006C76.2654 145.602 76.1502 146.314 76.2044 147.14C76.1502 147.94 76.2721 148.645 76.5703 149.255C76.882 149.851 77.3156 150.318 77.8712 150.657C78.4404 150.982 79.057 151.145 79.7211 151.145C80.4529 151.145 81.0695 150.976 81.5709 150.637C82.0723 150.298 82.4789 149.864 82.7906 149.336L84.3761 150.149C84.1593 150.65 83.8205 151.111 83.3597 151.531C82.9125 151.938 82.3772 152.263 81.7538 152.507C81.144 152.751 80.4596 152.873 79.7007 152.873ZM86.3328 152.629V141.672H88.1826V143.807L87.8777 143.624C88.1488 142.933 88.5824 142.397 89.1787 142.018C89.7885 141.625 90.5 141.428 91.3131 141.428C92.0991 141.428 92.797 141.605 93.4069 141.957C94.0303 142.309 94.5181 142.797 94.8705 143.42C95.2364 144.044 95.4193 144.749 95.4193 145.535V152.629H93.5085V146.144C93.5085 145.535 93.4001 145.02 93.1833 144.599C92.9664 144.179 92.6547 143.854 92.2482 143.624C91.8552 143.38 91.4012 143.258 90.8862 143.258C90.3713 143.258 89.9105 143.38 89.5039 143.624C89.1109 143.854 88.7993 144.186 88.5689 144.62C88.3385 145.04 88.2233 145.548 88.2233 146.144V152.629H86.3328ZM102.393 152.873C101.323 152.873 100.367 152.622 99.5271 152.121C98.7004 151.619 98.0499 150.935 97.5756 150.068C97.1013 149.2 96.8642 148.225 96.8642 147.14C96.8642 146.043 97.1013 145.067 97.5756 144.213C98.0499 143.359 98.7004 142.682 99.5271 142.18C100.367 141.679 101.323 141.428 102.393 141.428C103.112 141.428 103.782 141.557 104.406 141.815C105.029 142.072 105.578 142.418 106.052 142.851C106.527 143.285 106.872 143.793 107.089 144.376L105.402 145.189C105.144 144.62 104.751 144.159 104.223 143.807C103.694 143.441 103.084 143.258 102.393 143.258C101.729 143.258 101.126 143.427 100.584 143.766C100.056 144.105 99.6355 144.566 99.3238 145.148C99.0121 145.731 98.8563 146.402 98.8563 147.161C98.8563 147.893 99.0121 148.557 99.3238 149.153C99.6355 149.736 100.056 150.196 100.584 150.535C101.126 150.874 101.729 151.043 102.393 151.043C103.084 151.043 103.694 150.867 104.223 150.515C104.751 150.149 105.144 149.668 105.402 149.072L107.089 149.925C106.872 150.494 106.527 151.003 106.052 151.45C105.578 151.884 105.029 152.229 104.406 152.487C103.782 152.744 103.112 152.873 102.393 152.873ZM113.788 152.873C112.731 152.873 111.789 152.622 110.962 152.121C110.136 151.619 109.485 150.935 109.011 150.068C108.536 149.187 108.299 148.204 108.299 147.12C108.299 146.022 108.53 145.047 108.99 144.193C109.465 143.339 110.102 142.668 110.901 142.18C111.714 141.679 112.622 141.428 113.625 141.428C114.438 141.428 115.157 141.577 115.78 141.876C116.417 142.16 116.952 142.553 117.386 143.055C117.833 143.542 118.172 144.105 118.402 144.742C118.646 145.365 118.768 146.016 118.768 146.693C118.768 146.842 118.755 147.012 118.727 147.201C118.714 147.378 118.694 147.547 118.666 147.71H109.682V146.083H117.569L116.674 146.815C116.796 146.11 116.729 145.48 116.471 144.925C116.214 144.369 115.834 143.929 115.333 143.603C114.831 143.278 114.262 143.116 113.625 143.116C112.988 143.116 112.406 143.278 111.877 143.603C111.348 143.929 110.935 144.396 110.637 145.006C110.352 145.602 110.237 146.314 110.291 147.14C110.237 147.94 110.359 148.645 110.657 149.255C110.969 149.851 111.403 150.318 111.958 150.657C112.527 150.982 113.144 151.145 113.808 151.145C114.54 151.145 115.157 150.976 115.658 150.637C116.159 150.298 116.566 149.864 116.878 149.336L118.463 150.149C118.246 150.65 117.908 151.111 117.447 151.531C117 151.938 116.464 152.263 115.841 152.507C115.231 152.751 114.547 152.873 113.788 152.873Z" fill="white"/>
<path d="M131.785 44.7509C130.715 44.7509 129.888 44.446 129.305 43.8361C128.736 43.2263 128.452 42.3658 128.452 41.2545V35.4814H126.46V33.6723H126.866C127.354 33.6723 127.74 33.5232 128.025 33.2251C128.309 32.9269 128.452 32.5339 128.452 32.046V31.1516L130.342 31.1516V33.6723H132.802V35.4814H130.342V41.1935C130.342 41.5594 130.396 41.8779 130.505 42.1489C130.627 42.42 130.823 42.6368 131.094 42.7994C131.365 42.9485 131.724 43.023 132.172 43.023C132.267 43.023 132.382 43.0162 132.517 43.0027C132.666 42.9891 132.802 42.9756 132.924 42.962V44.6289C132.748 44.6696 132.551 44.6967 132.334 44.7102C132.117 44.7373 131.935 44.7509 131.785 44.7509ZM134.58 44.6289V29.2408H136.471V35.8067L136.125 35.6237C136.396 34.9326 136.83 34.3973 137.426 34.0178C138.036 33.6248 138.747 33.4283 139.56 33.4283C140.346 33.4283 141.044 33.6045 141.654 33.9569C142.278 34.3092 142.765 34.7971 143.118 35.4204C143.484 36.0438 143.667 36.7485 143.667 37.5345V44.6289H141.756V38.1444C141.756 37.5345 141.641 37.0196 141.41 36.5995C141.193 36.1793 140.889 35.8541 140.496 35.6237C140.103 35.3798 139.649 35.2578 139.134 35.2578C138.632 35.2578 138.178 35.3798 137.772 35.6237C137.365 35.8541 137.047 36.1861 136.816 36.6198C136.586 37.0399 136.471 37.5481 136.471 38.1444V44.6289H134.58ZM148.771 44.8728C148.052 44.8728 147.415 44.7441 146.86 44.4866C146.318 44.2156 145.891 43.8497 145.579 43.3889C145.267 42.9146 145.112 42.3725 145.112 41.7627C145.112 41.18 145.234 40.6582 145.477 40.1975C145.735 39.7231 146.128 39.3234 146.656 38.9981C147.199 38.6729 147.876 38.4425 148.689 38.307L152.755 37.6362V39.2217L149.116 39.8316C148.411 39.9535 147.896 40.1771 147.571 40.5024C147.26 40.8276 147.104 41.2274 147.104 41.7017C147.104 42.1489 147.28 42.5216 147.632 42.8197C147.998 43.1179 148.452 43.2669 148.994 43.2669C149.685 43.2669 150.282 43.1247 150.783 42.8401C151.298 42.5419 151.698 42.1421 151.982 41.6407C152.28 41.1393 152.43 40.5837 152.43 39.9739V37.189C152.43 36.5927 152.206 36.1116 151.759 35.7457C151.325 35.3662 150.749 35.1765 150.031 35.1765C149.407 35.1765 148.852 35.3391 148.364 35.6644C147.89 35.9761 147.537 36.3962 147.307 36.9247L145.66 36.0709C145.864 35.5695 146.189 35.1223 146.636 34.7293C147.083 34.3227 147.605 34.0043 148.201 33.7739C148.798 33.5435 149.421 33.4283 150.072 33.4283C150.912 33.4283 151.65 33.591 152.287 33.9162C152.924 34.2279 153.419 34.6683 153.771 35.2375C154.137 35.7931 154.32 36.4436 154.32 37.189V44.6289L152.47 44.6289V42.5555L152.816 42.6774C152.585 43.1111 152.274 43.4906 151.881 43.8158C151.488 44.141 151.027 44.3985 150.498 44.5883C149.97 44.778 149.394 44.8728 148.771 44.8728ZM160.691 44.7509C159.621 44.7509 158.794 44.446 158.211 43.8361C157.642 43.2263 157.358 42.3658 157.358 41.2545V35.4814H155.365V33.6723H155.772C156.26 33.6723 156.646 33.5232 156.931 33.2251C157.215 32.9269 157.358 32.5339 157.358 32.046V31.1516H159.248V33.6723H161.708V35.4814H159.248V41.1935C159.248 41.5594 159.302 41.8779 159.411 42.1489C159.533 42.42 159.729 42.6368 160 42.7994C160.271 42.9485 160.63 43.023 161.078 43.023C161.172 43.023 161.288 43.0162 161.423 43.0027C161.572 42.9891 161.708 42.9756 161.83 42.962V44.6289C161.654 44.6696 161.457 44.6967 161.24 44.7102C161.023 44.7373 160.84 44.7509 160.691 44.7509ZM23.0893 71.8728C22.0187 71.8728 21.0294 71.6831 20.1215 71.3037C19.227 70.9107 18.441 70.3618 17.7634 69.6571C17.0994 68.9524 16.5844 68.1258 16.2185 67.1771C15.8526 66.2285 15.6697 65.1918 15.6697 64.067C15.6697 62.9286 15.8526 61.8851 16.2185 60.9365C16.5844 59.9879 17.0994 59.1612 17.7634 58.4565C18.4275 57.7518 19.2135 57.2098 20.1215 56.8303C21.0294 56.4373 22.0187 56.2408 23.0893 56.2408C24.1328 56.2408 25.0679 56.4238 25.8945 56.7897C26.7347 57.1556 27.4394 57.6299 28.0086 58.2126C28.5913 58.7953 29.0047 59.4187 29.2486 60.0828L27.4191 60.9162C27.0668 60.076 26.5179 59.3984 25.7726 58.8834C25.0272 58.3549 24.1328 58.0906 23.0893 58.0906C22.0323 58.0906 21.0904 58.3414 20.2637 58.8428C19.4506 59.3442 18.8137 60.0421 18.3529 60.9365C17.8922 61.8309 17.6618 62.8744 17.6618 64.067C17.6618 65.246 17.8922 66.2827 18.3529 67.1771C18.8137 68.0716 19.4506 68.7695 20.2637 69.2709C21.0904 69.7723 22.0323 70.023 23.0893 70.023C24.1328 70.023 25.0272 69.7655 25.7726 69.2506C26.5179 68.722 27.0668 68.0377 27.4191 67.1975L29.2486 68.0309C29.0047 68.6949 28.5913 69.3183 28.0086 69.901C27.4394 70.4838 26.7347 70.9581 25.8945 71.324C25.0679 71.6899 24.1328 71.8728 23.0893 71.8728ZM35.9269 71.8728C34.8698 71.8728 33.9144 71.6289 33.0607 71.141C32.2069 70.6396 31.5293 69.9553 31.0279 69.0879C30.5265 68.2206 30.2758 67.2381 30.2758 66.1404C30.2758 65.0427 30.5197 64.067 31.0076 63.2132C31.509 62.3595 32.1866 61.6819 33.0404 61.1805C33.8941 60.679 34.8563 60.4283 35.9269 60.4283C36.9839 60.4283 37.9393 60.679 38.7931 61.1805C39.6469 61.6683 40.3177 62.3391 40.8055 63.1929C41.307 64.0467 41.5577 65.0292 41.5577 66.1404C41.5577 67.2517 41.3002 68.241 40.7852 69.1083C40.2702 69.962 39.5859 70.6396 38.7321 71.141C37.8919 71.6289 36.9568 71.8728 35.9269 71.8728ZM35.9269 70.0433C36.6045 70.0433 37.2143 69.8739 37.7564 69.5352C38.312 69.1964 38.7457 68.7288 39.0574 68.1325C39.3826 67.5363 39.5452 66.8722 39.5452 66.1404C39.5452 65.3951 39.3826 64.7378 39.0574 64.1686C38.7457 63.5859 38.312 63.1251 37.7564 62.7863C37.2143 62.434 36.6045 62.2578 35.9269 62.2578C35.2357 62.2578 34.6124 62.434 34.0567 62.7863C33.5147 63.1251 33.081 63.5859 32.7558 64.1686C32.4305 64.7378 32.2679 65.3951 32.2679 66.1404C32.2679 66.8722 32.4305 67.5363 32.7558 68.1325C33.081 68.7288 33.5147 69.1964 34.0567 69.5352C34.6124 69.8739 35.2357 70.0433 35.9269 70.0433ZM43.2103 71.6289V60.6723H45.0601V62.9083L44.7958 62.5627C45.0668 61.8716 45.5005 61.3431 46.0968 60.9772C46.6931 60.6113 47.3639 60.4283 48.1092 60.4283C48.963 60.4283 49.7287 60.6655 50.4063 61.1398C51.0974 61.6141 51.5717 62.2375 51.8292 63.01L51.3007 63.0303C51.5853 62.1765 52.0664 61.5328 52.744 61.0991C53.4215 60.6519 54.1737 60.4283 55.0003 60.4283C55.7592 60.4283 56.4436 60.6045 57.0534 60.9569C57.6768 61.3092 58.1715 61.7971 58.5374 62.4204C58.9033 63.0438 59.0862 63.7485 59.0862 64.5345V71.6289H57.1754V65.1444C57.1754 64.5345 57.067 64.0196 56.8502 63.5995C56.6333 63.1793 56.3352 62.8541 55.9557 62.6237C55.5898 62.3798 55.1562 62.2578 54.6548 62.2578C54.1669 62.2578 53.7265 62.3798 53.3335 62.6237C52.954 62.8541 52.6491 63.1861 52.4187 63.6198C52.2019 64.0399 52.0935 64.5481 52.0935 65.1444V71.6289H50.1827V65.1444C50.1827 64.5345 50.0742 64.0196 49.8574 63.5995C49.6406 63.1793 49.3424 62.8541 48.963 62.6237C48.5971 62.3798 48.1634 62.2578 47.662 62.2578C47.1742 62.2578 46.7337 62.3798 46.3407 62.6237C45.9613 62.8541 45.6564 63.1861 45.426 63.6198C45.2091 64.0399 45.1007 64.5481 45.1007 65.1444V71.6289H43.2103ZM66.6295 71.8728C65.7487 71.8728 64.9423 71.6763 64.2105 71.2833C63.4923 70.8903 62.9367 70.3347 62.5437 69.6165L62.8079 69.2912V71.6289H60.9581V56.2408H62.8486V63.0303L62.564 62.5627C62.9705 61.9123 63.5262 61.3973 64.2309 61.0178C64.9356 60.6248 65.7419 60.4283 66.6499 60.4283C67.6798 60.4283 68.6013 60.679 69.4144 61.1805C70.2411 61.6819 70.8916 62.3662 71.3659 63.2336C71.8402 64.0873 72.0774 65.0631 72.0774 66.1607C72.0774 67.2313 71.8402 68.2003 71.3659 69.0676C70.8916 69.9349 70.2411 70.6193 69.4144 71.1207C68.6013 71.6221 67.673 71.8728 66.6295 71.8728ZM66.4872 70.0433C67.1784 70.0433 67.795 69.8739 68.3371 69.5352C68.8791 69.1964 69.2992 68.7356 69.5974 68.1529C69.9091 67.5566 70.0649 66.8925 70.0649 66.1607C70.0649 65.4018 69.9091 64.7378 69.5974 64.1686C69.2992 63.5859 68.8791 63.1251 68.3371 62.7863C67.795 62.434 67.1784 62.2578 66.4872 62.2578C65.7961 62.2578 65.1727 62.4272 64.6171 62.766C64.075 63.1048 63.6414 63.5724 63.3161 64.1686C63.0044 64.7514 62.8486 65.4154 62.8486 66.1607C62.8486 66.8925 63.0044 67.5566 63.3161 68.1529C63.6414 68.7356 64.075 69.1964 64.6171 69.5352C65.1727 69.8739 65.7961 70.0433 66.4872 70.0433ZM73.7431 71.6289V60.6723H75.6336V71.6289H73.7431ZM73.7431 58.9241V56.4848H75.6336V58.9241H73.7431ZM77.7539 71.6289V60.6723H79.6037V62.8067L79.2988 62.6237C79.5698 61.9326 80.0035 61.3973 80.5998 61.0178C81.2096 60.6248 81.9211 60.4283 82.7342 60.4283C83.5202 60.4283 84.2181 60.6045 84.8279 60.9569C85.4513 61.3092 85.9392 61.7971 86.2915 62.4204C86.6574 63.0438 86.8404 63.7485 86.8404 64.5345V71.6289H84.9296V65.1444C84.9296 64.5345 84.8212 64.0196 84.6043 63.5995C84.3875 63.1793 84.0758 62.8541 83.6693 62.6237C83.2762 62.3798 82.8223 62.2578 82.3073 62.2578C81.7923 62.2578 81.3316 62.3798 80.925 62.6237C80.532 62.8541 80.2203 63.1861 79.9899 63.6198C79.7596 64.0399 79.6444 64.5481 79.6444 65.1444V71.6289H77.7539ZM93.7737 71.8728C92.7167 71.8728 91.7748 71.6221 90.9482 71.1207C90.1215 70.6193 89.471 69.9349 88.9967 69.0676C88.5224 68.1867 88.2852 67.2042 88.2852 66.1201C88.2852 65.0224 88.5156 64.0467 88.9764 63.1929C89.4507 62.3391 90.0876 61.6683 90.8872 61.1805C91.7003 60.679 92.6083 60.4283 93.6111 60.4283C94.4242 60.4283 95.1425 60.5774 95.7658 60.8755C96.4028 61.1601 96.9381 61.5531 97.3717 62.0545C97.8189 62.5424 98.1577 63.1048 98.3881 63.7417C98.632 64.3651 98.754 65.0156 98.754 65.6932C98.754 65.8423 98.7405 66.0117 98.7134 66.2014C98.6998 66.3776 98.6795 66.547 98.6524 66.7096H89.6675V65.0834H97.5547L96.6603 65.8152C96.7822 65.1105 96.7145 64.4803 96.457 63.9247C96.1995 63.3691 95.82 62.9286 95.3186 62.6034C94.8172 62.2782 94.248 62.1155 93.6111 62.1155C92.9742 62.1155 92.3914 62.2782 91.8629 62.6034C91.3344 62.9286 90.9211 63.3962 90.6229 64.006C90.3383 64.6023 90.2231 65.3138 90.2773 66.1404C90.2231 66.94 90.3451 67.6447 90.6432 68.2545C90.9549 68.8508 91.3886 69.3183 91.9442 69.6571C92.5134 69.9824 93.13 70.145 93.794 70.145C94.5258 70.145 95.1425 69.9756 95.6439 69.6368C96.1453 69.298 96.5518 68.8643 96.8635 68.3358L98.4491 69.1489C98.2323 69.6503 97.8935 70.1111 97.4327 70.5312C96.9855 70.9378 96.4502 71.263 95.8268 71.5069C95.217 71.7509 94.5326 71.8728 93.7737 71.8728ZM104.329 71.8728C103.231 71.8728 102.276 71.6018 101.463 71.0597C100.65 70.5177 100.074 69.7859 99.735 68.8643L101.239 68.1325C101.551 68.783 101.978 69.298 102.52 69.6774C103.062 70.0569 103.665 70.2466 104.329 70.2466C104.925 70.2466 105.42 70.1043 105.813 69.8197C106.206 69.5352 106.402 69.1625 106.402 68.7017C106.402 68.3765 106.308 68.119 106.118 67.9293C105.942 67.726 105.725 67.5701 105.467 67.4617C105.21 67.3398 104.973 67.2517 104.756 67.1975L103.109 66.7299C102.12 66.4453 101.395 66.0388 100.934 65.5103C100.487 64.9817 100.264 64.3651 100.264 63.6604C100.264 63.01 100.426 62.4476 100.751 61.9732C101.09 61.4854 101.544 61.1059 102.113 60.8349C102.696 60.5638 103.347 60.4283 104.065 60.4283C105.027 60.4283 105.888 60.6723 106.646 61.1601C107.419 61.648 107.968 62.3324 108.293 63.2132L106.748 63.9247C106.504 63.3555 106.138 62.9083 105.65 62.5831C105.162 62.2443 104.614 62.0749 104.004 62.0749C103.448 62.0749 103.008 62.2172 102.683 62.5018C102.357 62.7728 102.195 63.1184 102.195 63.5385C102.195 63.8502 102.276 64.1076 102.439 64.3109C102.601 64.5007 102.798 64.6497 103.028 64.7581C103.258 64.853 103.482 64.9343 103.699 65.0021L105.488 65.5306C106.382 65.7881 107.073 66.1879 107.561 66.7299C108.063 67.272 108.313 67.9225 108.313 68.6814C108.313 69.2912 108.144 69.8401 107.805 70.3279C107.466 70.8158 106.999 71.1952 106.402 71.4663C105.806 71.7373 105.115 71.8728 104.329 71.8728ZM21.3208 98.8728C20.3586 98.8728 19.4777 98.6967 18.6782 98.3443C17.8786 97.9784 17.201 97.4838 16.6454 96.8604C16.0898 96.237 15.69 95.5391 15.4461 94.7666L17.1739 94.0552C17.5398 95.0309 18.0819 95.783 18.8001 96.3115C19.5319 96.8265 20.3857 97.084 21.3614 97.084C21.9577 97.084 22.4795 96.9891 22.9267 96.7994C23.3739 96.6097 23.7195 96.3454 23.9634 96.0066C24.2209 95.6543 24.3496 95.2477 24.3496 94.787C24.3496 94.15 24.1667 93.6486 23.8008 93.2827C23.4484 92.9033 22.9267 92.6187 22.2355 92.429L19.4506 91.5752C18.3529 91.2364 17.5127 90.7011 16.93 89.9693C16.3473 89.2375 16.0559 88.3973 16.0559 87.4487C16.0559 86.622 16.2524 85.897 16.6454 85.2736C17.052 84.6367 17.6076 84.142 18.3123 83.7897C19.0305 83.4238 19.8436 83.2408 20.7516 83.2408C21.6596 83.2408 22.4795 83.4034 23.2113 83.7287C23.9566 84.0539 24.5868 84.4944 25.1017 85.05C25.6167 85.5921 25.9962 86.2154 26.2401 86.9201L24.5326 87.6316C24.2073 86.7778 23.7195 86.1341 23.069 85.7005C22.4185 85.2533 21.6528 85.0297 20.7719 85.0297C20.2299 85.0297 19.7488 85.1245 19.3287 85.3142C18.9221 85.4904 18.6036 85.7547 18.3733 86.107C18.1564 86.4458 18.048 86.8524 18.048 87.3267C18.048 87.8823 18.2242 88.377 18.5765 88.8106C18.9289 89.2443 19.4642 89.5763 20.1824 89.8067L22.7234 90.5588C23.916 90.9247 24.8172 91.4464 25.427 92.124C26.0368 92.8016 26.3417 93.6418 26.3417 94.6447C26.3417 95.4713 26.1249 96.2031 25.6912 96.8401C25.2711 97.477 24.6816 97.9784 23.9227 98.3443C23.1774 98.6967 22.3101 98.8728 21.3208 98.8728ZM32.6735 98.7509C31.6029 98.7509 30.7762 98.446 30.1935 97.8361C29.6243 97.2263 29.3398 96.3658 29.3398 95.2545L29.3398 89.4814H27.3476V87.6723H27.7542C28.2421 87.6723 28.6283 87.5232 28.9129 87.2251C29.1975 86.9269 29.3398 86.5339 29.3398 86.046V85.1516H31.2302V87.6723H33.6899V89.4814H31.2302V95.1935C31.2302 95.5594 31.2844 95.8779 31.3929 96.1489C31.5148 96.42 31.7113 96.6368 31.9824 96.7994C32.2534 96.9485 32.6125 97.023 33.0597 97.023C33.1546 97.023 33.2698 97.0162 33.4053 97.0027C33.5544 96.9891 33.6899 96.9756 33.8119 96.962V98.6289C33.6357 98.6696 33.4392 98.6967 33.2224 98.7102C33.0055 98.7373 32.8226 98.7509 32.6735 98.7509ZM35.4682 98.6289V87.6723H37.3181V89.6847L37.1148 89.4001C37.3723 88.7767 37.7653 88.316 38.2938 88.0178C38.8223 87.7061 39.466 87.5503 40.2249 87.5503H40.8957V89.3391H39.9403C39.1679 89.3391 38.5445 89.5831 38.0702 90.0709C37.5959 90.5452 37.3587 91.2228 37.3587 92.1037V98.6289H35.4682ZM44.9737 98.8728C44.2554 98.8728 43.6185 98.7441 43.0629 98.4866C42.5208 98.2156 42.0939 97.8497 41.7822 97.3889C41.4705 96.9146 41.3147 96.3725 41.3147 95.7627C41.3147 95.18 41.4367 94.6582 41.6806 94.1975C41.9381 93.7231 42.3311 93.3234 42.8596 92.9981C43.4017 92.6729 44.0793 92.4425 44.8924 92.307L48.9579 91.6362V93.2217L45.3193 93.8316C44.6146 93.9535 44.0996 94.1771 43.7743 94.5024C43.4627 94.8276 43.3068 95.2274 43.3068 95.7017C43.3068 96.1489 43.483 96.5216 43.8353 96.8197C44.2012 97.1179 44.6552 97.2669 45.1973 97.2669C45.8884 97.2669 46.4847 97.1247 46.9861 96.8401C47.5011 96.5419 47.9009 96.1421 48.1855 95.6407C48.4836 95.1393 48.6327 94.5837 48.6327 93.9739V91.189C48.6327 90.5927 48.4091 90.1116 47.9619 89.7457C47.5282 89.3662 46.9522 89.1765 46.234 89.1765C45.6106 89.1765 45.055 89.3391 44.5671 89.6644C44.0928 89.9761 43.7405 90.3962 43.5101 90.9247L41.8635 90.0709C42.0668 89.5695 42.3921 89.1223 42.8393 88.7293C43.2865 88.3227 43.8082 88.0043 44.4045 87.7739C45.0008 87.5435 45.6242 87.4283 46.2747 87.4283C47.1149 87.4283 47.8534 87.591 48.4904 87.9162C49.1273 88.2279 49.622 88.6683 49.9743 89.2375C50.3402 89.7931 50.5231 90.4436 50.5231 91.189V98.6289H48.6733V96.5555L49.0189 96.6774C48.7885 97.1111 48.4768 97.4906 48.0838 97.8158C47.6908 98.141 47.2301 98.3985 46.7015 98.5883C46.173 98.778 45.5971 98.8728 44.9737 98.8728ZM56.8945 98.7509C55.8239 98.7509 54.9972 98.446 54.4145 97.8361C53.8453 97.2263 53.5607 96.3658 53.5607 95.2545V89.4814H51.5686V87.6723H51.9752C52.463 87.6723 52.8492 87.5232 53.1338 87.2251C53.4184 86.9269 53.5607 86.5339 53.5607 86.046V85.1516H55.4512V87.6723H57.9108V89.4814H55.4512V95.1935C55.4512 95.5594 55.5054 95.8779 55.6138 96.1489C55.7358 96.42 55.9323 96.6368 56.2033 96.7994C56.4744 96.9485 56.8335 97.023 57.2807 97.023C57.3756 97.023 57.4907 97.0162 57.6263 97.0027C57.7753 96.9891 57.9108 96.9756 58.0328 96.962V98.6289C57.8566 98.6696 57.6601 98.6967 57.4433 98.7102C57.2265 98.7373 57.0435 98.7509 56.8945 98.7509ZM64.4327 98.8728C63.3757 98.8728 62.4338 98.6221 61.6072 98.1207C60.7805 97.6193 60.13 96.9349 59.6557 96.0676C59.1814 95.1867 58.9442 94.2042 58.9442 93.1201C58.9442 92.0224 59.1746 91.0467 59.6354 90.1929C60.1097 89.3391 60.7466 88.6683 61.5462 88.1805C62.3593 87.679 63.2673 87.4283 64.2701 87.4283C65.0832 87.4283 65.8014 87.5774 66.4248 87.8755C67.0618 88.1601 67.5971 88.5531 68.0307 89.0545C68.4779 89.5424 68.8167 90.1048 69.0471 90.7417C69.291 91.3651 69.413 92.0156 69.413 92.6932C69.413 92.8423 69.3995 93.0117 69.3724 93.2014C69.3588 93.3776 69.3385 93.547 69.3114 93.7096H60.3265V92.0834H68.2137L67.3193 92.8152C67.4412 92.1105 67.3735 91.4803 67.116 90.9247C66.8585 90.3691 66.479 89.9286 65.9776 89.6034C65.4762 89.2782 64.907 89.1155 64.2701 89.1155C63.6332 89.1155 63.0504 89.2782 62.5219 89.6034C61.9934 89.9286 61.5801 90.3962 61.2819 91.006C60.9973 91.6023 60.8821 92.3138 60.9363 93.1404C60.8821 93.94 61.0041 94.6447 61.3022 95.2545C61.6139 95.8508 62.0476 96.3183 62.6032 96.6571C63.1724 96.9824 63.789 97.145 64.453 97.145C65.1848 97.145 65.8014 96.9756 66.3029 96.6368C66.8043 96.298 67.2108 95.8643 67.5225 95.3358L69.1081 96.1489C68.8913 96.6503 68.5525 97.1111 68.0917 97.5312C67.6445 97.9378 67.1092 98.263 66.4858 98.5069C65.876 98.7509 65.1916 98.8728 64.4327 98.8728ZM76.289 103.101C75.5166 103.101 74.7983 102.979 74.1343 102.735C73.4838 102.491 72.9214 102.152 72.4471 101.719C71.9863 101.299 71.634 100.804 71.39 100.235L73.1585 99.4217C73.3483 99.9367 73.7074 100.37 74.2359 100.723C74.778 101.089 75.4556 101.272 76.2687 101.272C76.8921 101.272 77.4545 101.15 77.9559 100.906C78.4709 100.675 78.8774 100.323 79.1756 99.8486C79.4737 99.3878 79.6228 98.8254 79.6228 98.1614V95.7017L79.9683 96.0676C79.5889 96.813 79.04 97.3821 78.3218 97.7751C77.6171 98.1681 76.8379 98.3646 75.9841 98.3646C74.9542 98.3646 74.0326 98.1275 73.2195 97.6532C72.4064 97.1653 71.7695 96.508 71.3087 95.6814C70.848 94.8412 70.6176 93.9129 70.6176 92.8965C70.6176 91.8665 70.848 90.9383 71.3087 90.1116C71.7695 89.2849 72.3996 88.6344 73.1992 88.1601C74.0123 87.6723 74.9338 87.4283 75.9638 87.4283C76.8175 87.4283 77.59 87.6248 78.2811 88.0178C78.9858 88.3973 79.5482 88.9258 79.9683 89.6034L79.6837 90.1116V87.6723H81.5336V98.1614C81.5336 99.11 81.31 99.957 80.8628 100.702C80.4155 101.448 79.7922 102.03 78.9926 102.451C78.2066 102.884 77.3054 103.101 76.289 103.101ZM76.1467 96.5352C76.7972 96.5352 77.3799 96.3725 77.8949 96.0473C78.4234 95.722 78.8435 95.2884 79.1552 94.7463C79.4669 94.1907 79.6228 93.5741 79.6228 92.8965C79.6228 92.2324 79.4669 91.6226 79.1552 91.067C78.8435 90.5114 78.4234 90.0709 77.8949 89.7457C77.3799 89.4204 76.7972 89.2578 76.1467 89.2578C75.4827 89.2578 74.8796 89.4204 74.3376 89.7457C73.7955 90.0709 73.3686 90.5114 73.0569 91.067C72.7588 91.6091 72.6097 92.2189 72.6097 92.8965C72.6097 93.5741 72.7588 94.1907 73.0569 94.7463C73.3686 95.2884 73.7887 95.722 74.3172 96.0473C74.8593 96.3725 75.4691 96.5352 76.1467 96.5352ZM84.2408 103.101C83.9969 103.101 83.7529 103.081 83.509 103.04C83.2651 102.999 83.0347 102.932 82.8179 102.837V101.15C82.9669 101.177 83.1499 101.204 83.3667 101.231C83.5971 101.272 83.8207 101.292 84.0375 101.292C84.6745 101.292 85.1556 101.15 85.4808 100.865C85.8196 100.594 86.1381 100.12 86.4362 99.442L87.1273 97.7955L87.0867 99.442L82.4113 87.6723H84.4644L88.1031 97.023H87.4932L91.1116 87.6723H93.2053L88.2657 99.9299C88.0353 100.513 87.7372 101.041 87.3713 101.515C87.0189 102.003 86.5853 102.39 86.0703 102.674C85.5553 102.959 84.9455 103.101 84.2408 103.101ZM93.5854 101.454V100.54C94.0055 100.431 94.3239 100.221 94.5408 99.9096C94.7576 99.5979 94.8796 99.171 94.9067 98.6289H93.9919V96.1896H95.9637V97.9174C95.9637 98.8932 95.7604 99.6792 95.3539 100.275C94.9609 100.872 94.3714 101.265 93.5854 101.454ZM19.1051 125.873C18.3868 125.873 17.7499 125.744 17.1943 125.487C16.6522 125.216 16.2253 124.85 15.9136 124.389C15.6019 123.915 15.4461 123.373 15.4461 122.763C15.4461 122.18 15.568 121.658 15.812 121.197C16.0695 120.723 16.4625 120.323 16.991 119.998C17.5331 119.673 18.2106 119.443 19.0238 119.307L23.0893 118.636V120.222L19.4506 120.832C18.7459 120.954 18.231 121.177 17.9057 121.502C17.594 121.828 17.4382 122.227 17.4382 122.702C17.4382 123.149 17.6144 123.522 17.9667 123.82C18.3326 124.118 18.7866 124.267 19.3287 124.267C20.0198 124.267 20.6161 124.125 21.1175 123.84C21.6325 123.542 22.0323 123.142 22.3168 122.641C22.615 122.139 22.7641 121.584 22.7641 120.974V118.189C22.7641 117.593 22.5404 117.112 22.0932 116.746C21.6596 116.366 21.0836 116.177 20.3654 116.177C19.742 116.177 19.1864 116.339 18.6985 116.664C18.2242 116.976 17.8718 117.396 17.6415 117.925L15.9949 117.071C16.1982 116.57 16.5234 116.122 16.9707 115.729C17.4179 115.323 17.9396 115.004 18.5359 114.774C19.1322 114.544 19.7556 114.428 20.406 114.428C21.2463 114.428 21.9848 114.591 22.6218 114.916C23.2587 115.228 23.7533 115.668 24.1057 116.237C24.4716 116.793 24.6545 117.444 24.6545 118.189V125.629H22.8047V123.555L23.1503 123.677C22.9199 124.111 22.6082 124.491 22.2152 124.816C21.8222 125.141 21.3614 125.399 20.8329 125.588C20.3044 125.778 19.7284 125.873 19.1051 125.873ZM26.7726 125.629V114.672H28.6224V116.807L28.3175 116.624C28.5885 115.933 29.0222 115.397 29.6185 115.018C30.2283 114.625 30.9398 114.428 31.7529 114.428C32.5389 114.428 33.2368 114.605 33.8466 114.957C34.47 115.309 34.9579 115.797 35.3102 116.42C35.6761 117.044 35.8591 117.749 35.8591 118.535V125.629H33.9483V119.144C33.9483 118.535 33.8399 118.02 33.623 117.599C33.4062 117.179 33.0945 116.854 32.688 116.624C32.295 116.38 31.841 116.258 31.326 116.258C30.811 116.258 30.3503 116.38 29.9437 116.624C29.5507 116.854 29.239 117.186 29.0086 117.62C28.7783 118.04 28.6631 118.548 28.6631 119.144V125.629H26.7726ZM42.7314 125.873C41.7015 125.873 40.7732 125.622 39.9465 125.121C39.1334 124.619 38.4897 123.935 38.0154 123.068C37.5411 122.2 37.3039 121.231 37.3039 120.161C37.3039 119.063 37.5411 118.087 38.0154 117.234C38.4897 116.366 39.1334 115.682 39.9465 115.18C40.7732 114.679 41.7015 114.428 42.7314 114.428C43.6394 114.428 44.4457 114.625 45.1504 115.018C45.8551 115.397 46.4108 115.912 46.8173 116.563L46.5124 117.03L46.5124 110.241H48.4232L48.4232 125.629H46.5734V123.291L46.8173 123.616C46.4379 124.335 45.8822 124.89 45.1504 125.283C44.4322 125.676 43.6259 125.873 42.7314 125.873ZM42.8941 124.043C43.5852 124.043 44.2018 123.874 44.7439 123.535C45.286 123.196 45.7128 122.736 46.0245 122.153C46.3498 121.557 46.5124 120.893 46.5124 120.161C46.5124 119.415 46.3498 118.751 46.0245 118.169C45.7128 117.572 45.286 117.105 44.7439 116.766C44.2018 116.427 43.5852 116.258 42.8941 116.258C42.2165 116.258 41.5999 116.434 41.0442 116.786C40.5022 117.125 40.0753 117.586 39.7636 118.169C39.4519 118.738 39.2961 119.402 39.2961 120.161C39.2961 120.893 39.4519 121.557 39.7636 122.153C40.0753 122.736 40.5022 123.196 41.0442 123.535C41.5863 123.874 42.2029 124.043 42.8941 124.043ZM51.9968 125.629L57.4243 110.485H59.7823L65.2098 125.629H63.0754L61.8354 122.072H55.3712L54.1312 125.629H51.9968ZM56.0013 120.242H61.2052L58.3187 111.928H58.8879L56.0013 120.242ZM66.0813 125.629V114.672H67.9311V116.685L67.7279 116.4C67.9854 115.777 68.3784 115.316 68.9069 115.018C69.4354 114.706 70.0791 114.55 70.838 114.55H71.5088V116.339H70.5534C69.781 116.339 69.1576 116.583 68.6833 117.071C68.209 117.545 67.9718 118.223 67.9718 119.104V125.629H66.0813ZM76.926 125.751C75.8554 125.751 75.0288 125.446 74.446 124.836C73.8768 124.226 73.5923 123.366 73.5923 122.255V116.481H71.6001L71.6001 114.672H72.0067C72.4946 114.672 72.8808 114.523 73.1654 114.225C73.45 113.927 73.5923 113.534 73.5923 113.046V112.152H75.4827V114.672H77.9424V116.481H75.4827V122.194C75.4827 122.559 75.5369 122.878 75.6454 123.149C75.7673 123.42 75.9638 123.637 76.2349 123.799C76.5059 123.948 76.865 124.023 77.3122 124.023C77.4071 124.023 77.5223 124.016 77.6578 124.003C77.8069 123.989 77.9424 123.976 78.0644 123.962V125.629C77.8882 125.67 77.6917 125.697 77.4749 125.71C77.258 125.737 77.0751 125.751 76.926 125.751ZM79.7207 125.629V114.672H81.6112V125.629H79.7207ZM79.7207 112.924V110.485H81.6112V112.924H79.7207ZM84.8902 125.629V116.481H82.7964V114.672H84.8902V113.9C84.8902 113.114 85.0596 112.45 85.3984 111.908C85.7507 111.366 86.2115 110.952 86.7807 110.668C87.3634 110.383 88.0071 110.241 88.7118 110.241C88.8609 110.241 89.0235 110.254 89.1997 110.281C89.3894 110.295 89.5452 110.315 89.6672 110.342V112.03C89.5588 112.003 89.43 111.989 89.281 111.989C89.1319 111.975 89.0167 111.969 88.9354 111.969C88.312 111.969 87.797 112.118 87.3905 112.416C86.9975 112.714 86.801 113.209 86.801 113.9V114.672H92.4928V116.481H86.801V125.629H84.8902ZM91.3137 125.629V114.672H93.2246V125.629H91.3137ZM100.11 125.873C99.039 125.873 98.0836 125.622 97.2434 125.121C96.4167 124.619 95.7663 123.935 95.2919 123.068C94.8176 122.2 94.5805 121.225 94.5805 120.14C94.5805 119.043 94.8176 118.067 95.2919 117.213C95.7663 116.359 96.4167 115.682 97.2434 115.18C98.0836 114.679 99.039 114.428 100.11 114.428C100.828 114.428 101.499 114.557 102.122 114.815C102.745 115.072 103.294 115.418 103.769 115.851C104.243 116.285 104.588 116.793 104.805 117.376L103.118 118.189C102.861 117.62 102.468 117.159 101.939 116.807C101.411 116.441 100.801 116.258 100.11 116.258C99.4456 116.258 98.8425 116.427 98.3004 116.766C97.7719 117.105 97.3518 117.566 97.0401 118.148C96.7284 118.731 96.5726 119.402 96.5726 120.161C96.5726 120.893 96.7284 121.557 97.0401 122.153C97.3518 122.736 97.7719 123.196 98.3004 123.535C98.8425 123.874 99.4456 124.043 100.11 124.043C100.801 124.043 101.411 123.867 101.939 123.515C102.468 123.149 102.861 122.668 103.118 122.072L104.805 122.925C104.588 123.494 104.243 124.003 103.769 124.45C103.294 124.884 102.745 125.229 102.122 125.487C101.499 125.744 100.828 125.873 100.11 125.873ZM106.463 125.629V114.672H108.353V125.629H106.463ZM106.463 112.924V110.485H108.353V112.924H106.463ZM113.685 125.873C112.967 125.873 112.33 125.744 111.775 125.487C111.232 125.216 110.806 124.85 110.494 124.389C110.182 123.915 110.026 123.373 110.026 122.763C110.026 122.18 110.148 121.658 110.392 121.197C110.65 120.723 111.043 120.323 111.571 119.998C112.113 119.673 112.791 119.443 113.604 119.307L117.67 118.636V120.222L114.031 120.832C113.326 120.954 112.811 121.177 112.486 121.502C112.174 121.828 112.018 122.227 112.018 122.702C112.018 123.149 112.195 123.522 112.547 123.82C112.913 124.118 113.367 124.267 113.909 124.267C114.6 124.267 115.196 124.125 115.698 123.84C116.213 123.542 116.613 123.142 116.897 122.641C117.195 122.139 117.344 121.584 117.344 120.974V118.189C117.344 117.593 117.121 117.112 116.674 116.746C116.24 116.366 115.664 116.177 114.946 116.177C114.322 116.177 113.767 116.339 113.279 116.664C112.804 116.976 112.452 117.396 112.222 117.925L110.575 117.071C110.778 116.57 111.104 116.122 111.551 115.729C111.998 115.323 112.52 115.004 113.116 114.774C113.712 114.544 114.336 114.428 114.986 114.428C115.827 114.428 116.565 114.591 117.202 114.916C117.839 115.228 118.334 115.668 118.686 116.237C119.052 116.793 119.235 117.444 119.235 118.189V125.629H117.385V123.555L117.731 123.677C117.5 124.111 117.189 124.491 116.796 124.816C116.403 125.141 115.942 125.399 115.413 125.588C114.885 125.778 114.309 125.873 113.685 125.873ZM121.353 125.629V110.241H123.243V125.629H121.353Z" fill="white" fill-opacity="0.4"/>
<rect x="105.027" y="30.4883" width="16.9398" height="16.9398" rx="8.46988" fill="#CDFB56"/>
<path d="M113.498 35.4297C112.843 35.4297 112.214 35.69 111.751 36.1532C111.288 36.6165 111.027 37.2449 111.027 37.9001C111.027 38.74 111.447 39.4776 112.086 39.9258V40.7234C112.086 40.817 112.123 40.9067 112.189 40.9729C112.256 41.0391 112.345 41.0763 112.439 41.0763H114.556C114.65 41.0763 114.74 41.0391 114.806 40.9729C114.872 40.9067 114.909 40.817 114.909 40.7234V39.9258C115.548 39.4776 115.968 38.74 115.968 37.9001C115.968 37.2449 115.708 36.6165 115.245 36.1532C114.781 35.69 114.153 35.4297 113.498 35.4297ZM112.439 42.135C112.439 42.2286 112.476 42.3184 112.542 42.3846C112.609 42.4507 112.698 42.4879 112.792 42.4879H114.204C114.297 42.4879 114.387 42.4507 114.453 42.3846C114.519 42.3184 114.556 42.2286 114.556 42.135V41.7821H112.439V42.135Z" fill="black"/>
</svg>
